<svg width="83" height="24" viewBox="0 0 83 24" fill="none" xmlns="http://www.w3.org/2000/svg">
<rect x="1.3245" y="1.11357" width="80.5861" height="21.5879" rx="10.7939" stroke="white" stroke-width="1.35099"/>
<path d="M20.1633 12.2153C20.1789 11.3603 20.8307 10.5513 21.8646 10.1034C21.2123 9.44714 20.1198 9.03104 18.9832 9.00598C17.7709 8.91633 16.5956 9.51707 15.9778 9.51707C15.3481 9.51707 14.3969 9.01488 13.3727 9.02973C12.0376 9.06012 10.793 9.59488 10.1435 10.4172C8.74726 12.1203 9.78873 14.6233 11.1262 15.9999C11.7954 16.6741 12.5774 17.4271 13.6008 17.4004C14.6021 17.3711 14.9761 16.9505 16.1849 16.9505C17.3824 16.9505 17.7333 17.4004 18.7774 17.3834C19.8519 17.3711 20.5289 16.7063 21.1746 16.0258C21.6554 15.5454 22.0254 15.0146 22.2708 14.4528C21.008 14.0766 20.1648 13.1812 20.1633 12.2153Z" fill="white"/>
<path d="M18.1912 8.10062C18.7771 7.60511 19.0657 6.96822 18.9958 6.3252C18.1007 6.39143 17.2739 6.69282 16.6801 7.16932C16.0995 7.63488 15.7973 8.26057 15.8544 8.87902C16.7498 8.88551 17.6301 8.59229 18.1912 8.10062Z" fill="white"/>
<path d="M55.8785 11.3311V12.3672H54.9568V13.0466H55.8785V15.3553C55.8785 16.1436 56.3847 16.4589 57.6582 16.4589C57.882 16.4589 58.0951 16.4402 58.2816 16.4176V15.7457C58.1217 15.757 58.0205 15.7645 57.8447 15.7645C57.2745 15.7645 57.0241 15.5768 57.0241 15.1488V13.0466H58.2816V12.3672H57.0241V11.3311H55.8785Z" fill="white"/>
<path d="M61.5256 16.5152C63.22 16.5152 64.259 15.7157 64.259 14.3905C64.259 13.0729 63.2147 12.2696 61.5256 12.2696C59.8313 12.2696 58.7869 13.0729 58.7869 14.3905C58.7869 15.7157 59.8259 16.5152 61.5256 16.5152ZM61.5256 15.7982C60.5293 15.7982 59.9698 15.284 59.9698 14.3905C59.9698 13.5046 60.5293 12.9866 61.5256 12.9866C62.5167 12.9866 63.0815 13.5046 63.0815 14.3905C63.0815 15.2802 62.5167 15.7982 61.5256 15.7982Z" fill="white"/>
<path d="M65.148 16.4364H66.2936V14.0226C66.2936 13.4483 66.9063 13.0616 67.7748 13.0616C67.9773 13.0616 68.3183 13.0879 68.4142 13.1104V12.3146C68.2917 12.2921 68.0732 12.2808 67.9027 12.2808C67.1461 12.2808 66.5014 12.5736 66.3362 12.9753H66.251V12.3484H65.148V16.4364Z" fill="white"/>
<path d="M71.2587 12.9565C72.1059 12.9565 72.66 13.3732 72.6866 14.0151H69.7561C69.82 13.377 70.4115 12.9565 71.2587 12.9565ZM72.6813 15.3328C72.4682 15.6518 71.994 15.8283 71.3013 15.8283C70.3848 15.8283 69.7934 15.3741 69.7561 14.6571V14.612H73.8535V14.3305C73.8535 13.0466 72.8785 12.2696 71.264 12.2696C69.6282 12.2696 68.5892 13.0992 68.5892 14.4055C68.5892 15.7119 69.6069 16.5152 71.2693 16.5152C72.5961 16.5152 73.5232 16.0648 73.7843 15.3328H72.6813Z" fill="white"/>
<path d="M48.366 14.9268C48.4544 15.9306 49.6417 16.5726 51.409 16.5726C53.2977 16.5726 54.4795 15.8995 54.4795 14.8256C54.4795 13.9813 53.8058 13.5144 52.1711 13.2459L51.293 13.0942C50.2547 12.923 49.835 12.6934 49.835 12.2927C49.835 11.7869 50.4867 11.4562 51.4642 11.4562C52.392 11.4562 53.0326 11.7791 53.1486 12.2966H54.3525C54.2807 11.3511 53.0989 10.6858 51.4808 10.6858C49.7411 10.6858 48.5814 11.3511 48.5814 12.3511C48.5814 13.1759 49.2386 13.6662 50.68 13.9035L51.7072 14.0786C52.762 14.2537 53.2259 14.5105 53.2259 14.9384C53.2259 15.4365 52.4969 15.7983 51.5029 15.7983C50.437 15.7983 49.697 15.4598 49.592 14.9268H48.366Z" fill="white"/>
<path d="M36.499 12.2808C35.7105 12.2808 35.0284 12.5586 34.6768 13.0241H34.5915V12.3484H33.4886V17.7953H34.6341V15.817H34.7247C35.0284 16.2487 35.6838 16.504 36.5097 16.504C37.975 16.504 38.9074 15.6894 38.9074 14.3905C38.9074 13.0917 37.975 12.2808 36.499 12.2808ZM36.174 15.7795C35.2149 15.7795 34.6128 15.2464 34.6128 14.3943C34.6128 13.5384 35.2149 13.0053 36.1793 13.0053C37.1491 13.0053 37.7299 13.5271 37.7299 14.3905C37.7299 15.2577 37.1491 15.7795 36.174 15.7795Z" fill="white"/>
<path d="M42.916 12.2808C42.1274 12.2808 41.4454 12.5586 41.0937 13.0241H41.0084V12.3484H39.9055V17.7953H41.0511V15.817H41.1417C41.4454 16.2487 42.1007 16.504 42.9266 16.504C44.3919 16.504 45.3243 15.6894 45.3243 14.3905C45.3243 13.0917 44.3919 12.2808 42.916 12.2808ZM42.5909 15.7795C41.6319 15.7795 41.0298 15.2464 41.0298 14.3943C41.0298 13.5384 41.6319 13.0053 42.5963 13.0053C43.566 13.0053 44.1468 13.5271 44.1468 14.3905C44.1468 15.2577 43.566 15.7795 42.5909 15.7795Z" fill="white"/>
<path d="M31.4332 16.4364H32.7476L29.8703 10.822H28.5394L25.6621 16.4364H26.9323L27.6668 14.9462H30.7042L31.4332 16.4364ZM29.1413 11.8414H29.2352L30.3894 14.2148H27.9816L29.1413 11.8414Z" fill="white"/>
<path d="M25.6309 6.86212V9.08137H26.7682C27.7068 9.08137 28.2504 8.67381 28.2504 7.96482C28.2504 7.2666 27.7025 6.86212 26.7682 6.86212H25.6309ZM26.1198 7.17586H26.7136C27.3663 7.17586 27.7527 7.46807 27.7527 7.96944C27.7527 8.4785 27.3728 8.76763 26.7136 8.76763H26.1198V7.17586Z" fill="white"/>
<path d="M29.9151 9.11366C30.6093 9.11366 31.0349 8.78608 31.0349 8.24319C31.0349 7.70337 30.6071 7.37426 29.9151 7.37426C29.2209 7.37426 28.7931 7.70337 28.7931 8.24319C28.7931 8.78608 29.2187 9.11366 29.9151 9.11366ZM29.9151 8.81992C29.5069 8.81992 29.2777 8.60922 29.2777 8.24319C29.2777 7.88024 29.5069 7.668 29.9151 7.668C30.3211 7.668 30.5525 7.88024 30.5525 8.24319C30.5525 8.60768 30.3211 8.81992 29.9151 8.81992Z" fill="white"/>
<path d="M34.6599 7.40655H34.1906L33.7671 8.68458H33.73L33.241 7.40655H32.7913L32.3023 8.68458H32.2674L31.8417 7.40655H31.3659L32.0207 9.08137H32.5032L32.9922 7.84794H33.0293L33.5204 9.08137H34.0072L34.6599 7.40655Z" fill="white"/>
<path d="M35.2004 9.08137H35.6697V8.1017C35.6697 7.84025 35.8902 7.67723 36.2373 7.67723C36.5844 7.67723 36.7503 7.81103 36.7503 8.08017V9.08137H37.2196V7.99712C37.2196 7.5988 36.9271 7.37426 36.3967 7.37426C36.0387 7.37426 35.8029 7.48653 35.6872 7.67262H35.6523V7.40655H35.2004V9.08137Z" fill="white"/>
<path d="M37.9588 9.08137H38.4281V6.75293H37.9588V9.08137Z" fill="white"/>
<path d="M40.1932 9.11366C40.8874 9.11366 41.3131 8.78608 41.3131 8.24319C41.3131 7.70337 40.8852 7.37426 40.1932 7.37426C39.499 7.37426 39.0712 7.70337 39.0712 8.24319C39.0712 8.78608 39.4969 9.11366 40.1932 9.11366ZM40.1932 8.81992C39.785 8.81992 39.5558 8.60922 39.5558 8.24319C39.5558 7.88024 39.785 7.668 40.1932 7.668C40.5992 7.668 40.8306 7.88024 40.8306 8.24319C40.8306 8.60768 40.5992 8.81992 40.1932 8.81992Z" fill="white"/>
<path d="M42.7115 8.83068C42.456 8.83068 42.2705 8.74302 42.2705 8.5923C42.2705 8.44466 42.4189 8.36623 42.7464 8.35085L43.327 8.3247V8.46465C43.327 8.67228 43.0651 8.83068 42.7115 8.83068ZM42.5914 9.10905C42.9036 9.10905 43.1633 9.0137 43.3052 8.84606H43.3423V9.08137H43.7942V7.93714C43.7942 7.58342 43.458 7.37426 42.8621 7.37426C42.3229 7.37426 41.9387 7.55881 41.8907 7.8464H42.3447C42.3971 7.72798 42.5783 7.66031 42.8402 7.66031C43.1611 7.66031 43.327 7.76028 43.327 7.93714V8.08171L42.6831 8.10785C42.1177 8.13246 41.799 8.30625 41.799 8.60768C41.799 8.91373 42.133 9.10905 42.5914 9.10905Z" fill="white"/>
<path d="M45.3869 9.10905C45.7143 9.10905 45.9915 8.99986 46.1334 8.81684H46.1705V9.08137H46.6202V6.75293H46.1509V7.67262H46.116C45.9872 7.48806 45.7121 7.37887 45.3869 7.37887C44.7866 7.37887 44.4002 7.71414 44.4002 8.24319C44.4002 8.77378 44.7822 9.10905 45.3869 9.10905ZM45.52 7.67569C45.9129 7.67569 46.1596 7.89562 46.1596 8.24473C46.1596 8.59538 45.9151 8.81223 45.52 8.81223C45.1227 8.81223 44.8848 8.59845 44.8848 8.24319C44.8848 7.891 45.1249 7.67569 45.52 7.67569Z" fill="white"/>
<path d="M49.6637 9.11366C50.3578 9.11366 50.7835 8.78608 50.7835 8.24319C50.7835 7.70337 50.3557 7.37426 49.6637 7.37426C48.9695 7.37426 48.5416 7.70337 48.5416 8.24319C48.5416 8.78608 48.9673 9.11366 49.6637 9.11366ZM49.6637 8.81992C49.2555 8.81992 49.0262 8.60922 49.0262 8.24319C49.0262 7.88024 49.2555 7.668 49.6637 7.668C50.0697 7.668 50.3011 7.88024 50.3011 8.24319C50.3011 8.60768 50.0697 8.81992 49.6637 8.81992Z" fill="white"/>
<path d="M51.4048 9.08137H51.8741V8.1017C51.8741 7.84025 52.0946 7.67723 52.4417 7.67723C52.7888 7.67723 52.9547 7.81103 52.9547 8.08017V9.08137H53.424V7.99712C53.424 7.5988 53.1315 7.37426 52.601 7.37426C52.243 7.37426 52.0073 7.48653 51.8916 7.67262H51.8566V7.40655H51.4048V9.08137Z" fill="white"/>
<path d="M55.5855 6.98977V7.41424H55.2079V7.69261H55.5855V8.63844C55.5855 8.96141 55.7929 9.09059 56.3146 9.09059C56.4063 9.09059 56.4936 9.0829 56.57 9.07368V8.79839C56.5045 8.803 56.4631 8.80608 56.391 8.80608C56.1575 8.80608 56.0549 8.72918 56.0549 8.55385V7.69261H56.57V7.41424H56.0549V6.98977H55.5855Z" fill="white"/>
<path d="M57.2 9.08137H57.6694V8.10324C57.6694 7.84948 57.8833 7.67877 58.2675 7.67877C58.5993 7.67877 58.7761 7.81411 58.7761 8.08171V9.08137H59.2454V8.0002C59.2454 7.60187 58.9333 7.37579 58.4268 7.37579C58.0688 7.37579 57.8178 7.48806 57.7021 7.67569H57.665V6.75293H57.2V9.08137Z" fill="white"/>
<path d="M60.9385 7.6557C61.2856 7.6557 61.5126 7.82641 61.5235 8.0894H60.3229C60.3491 7.82795 60.5914 7.6557 60.9385 7.6557ZM61.5214 8.62921C61.434 8.75994 61.2398 8.83222 60.956 8.83222C60.5805 8.83222 60.3382 8.64613 60.3229 8.35238V8.33393H62.0016V8.21858C62.0016 7.69261 61.6021 7.37426 60.9407 7.37426C60.2705 7.37426 59.8449 7.71414 59.8449 8.24934C59.8449 8.78454 60.2618 9.11366 60.9429 9.11366C61.4864 9.11366 61.8663 8.92911 61.9732 8.62921H61.5214Z" fill="white"/>
</svg>
