<svg width="26" height="26" viewBox="0 0 26 26" fill="none" xmlns="http://www.w3.org/2000/svg">
<circle cx="13.001" cy="13.0001" r="13" transform="rotate(-180 13.001 13.0001)" fill="white" fill-opacity="0.3"/>
<g clip-path="url(#clip0_134_191)">
<path fill-rule="evenodd" clip-rule="evenodd" d="M9.76471 7.11092C10.02 6.87432 10.4328 6.87432 10.6875 7.11092L16.0848 12.1244C16.2056 12.2349 16.3018 12.3679 16.3675 12.5153C16.4332 12.6628 16.4671 12.8215 16.4671 12.9819C16.4671 13.1424 16.4332 13.3011 16.3675 13.4485C16.3018 13.5959 16.2056 13.7289 16.0848 13.8395L10.6484 18.89C10.525 19.0028 10.3616 19.0663 10.1914 19.0674C10.0212 19.0685 9.85692 19.0073 9.73193 18.896C9.67002 18.8411 9.62048 18.7745 9.58638 18.7004C9.55229 18.6263 9.53436 18.5463 9.53371 18.4652C9.53306 18.3842 9.5497 18.3039 9.58261 18.2293C9.61551 18.1547 9.66398 18.0874 9.725 18.0315L14.7006 13.4105C14.7611 13.3553 14.8092 13.2888 14.8421 13.215C14.875 13.1413 14.892 13.0619 14.892 12.9816C14.892 12.9014 14.875 12.822 14.8421 12.7482C14.8092 12.6745 14.7611 12.608 14.7006 12.5527L9.76471 7.96814C9.70427 7.91293 9.65614 7.84646 9.62325 7.77277C9.59036 7.69909 9.5734 7.61973 9.5734 7.53953C9.5734 7.45933 9.59036 7.37997 9.62325 7.30628C9.65614 7.2326 9.70427 7.16613 9.76471 7.11092Z" fill="#EEEEFF"/>
</g>
<defs>
<clipPath id="clip0_134_191">
<rect width="6.93333" height="12.1333" fill="white" transform="matrix(1 0 0 -1 9.53418 19.0668)"/>
</clipPath>
</defs>
</svg>
