<svg width="62" height="62" viewBox="0 0 62 62" fill="none" xmlns="http://www.w3.org/2000/svg">
<circle cx="31" cy="31" r="31" fill="#8A1538"/>
<g clip-path="url(#clip0_6_9874)">
<path d="M41.2478 30.1763C40.9542 30.1763 40.6726 30.0596 40.4649 29.852C40.2573 29.6444 40.1407 29.3628 40.1407 29.0691V25.9426C40.1407 21.514 36.0487 17.9711 31.0178 17.9711C25.987 17.9711 21.895 21.5583 21.895 25.9426V29.0691C21.895 29.3628 21.7783 29.6444 21.5707 29.852C21.363 30.0596 21.0814 30.1763 20.7878 30.1763C20.4942 30.1763 20.2126 30.0596 20.0049 29.852C19.7973 29.6444 19.6807 29.3628 19.6807 29.0691V25.9426C19.6807 20.3094 24.7735 15.7214 31.0178 15.7214C37.2621 15.7214 42.355 20.3094 42.355 25.9426V29.0691C42.3561 29.2149 42.3283 29.3594 42.2731 29.4942C42.2179 29.6291 42.1364 29.7516 42.0333 29.8546C41.9303 29.9577 41.8077 30.0392 41.6729 30.0944C41.538 30.1496 41.3935 30.1775 41.2478 30.1763Z" fill="white"/>
<path d="M38.2536 40.5923C37.96 40.5923 37.6784 40.4757 37.4708 40.268C37.2631 40.0604 37.1465 39.7788 37.1465 39.4852V28.9717C37.1557 28.6843 37.2764 28.4117 37.483 28.2117C37.6897 28.0116 37.966 27.8999 38.2536 27.9C42.0711 27.9 45.1799 30.7609 45.1799 34.2683C45.1799 37.7757 42.0711 40.5923 38.2536 40.5923ZM39.3608 30.194V38.2629C40.3301 38.1024 41.2153 37.6151 41.8695 36.8821C42.5236 36.149 42.9073 35.2141 42.9568 34.2329C42.9093 33.2501 42.5265 32.3132 41.8722 31.5783C41.2178 30.8434 40.3315 30.3548 39.3608 30.194ZM23.7456 40.5923C19.9282 40.5923 16.8193 37.7403 16.8193 34.2329C16.8193 30.7255 19.9282 27.9 23.7456 27.9C24.0393 27.9 24.3209 28.0167 24.5285 28.2243C24.7361 28.4319 24.8528 28.7135 24.8528 29.0072V39.4852C24.8528 39.7788 24.7361 40.0604 24.5285 40.268C24.3209 40.4757 24.0393 40.5923 23.7456 40.5923ZM22.6385 30.194C21.6677 30.3548 20.7814 30.8434 20.1271 31.5783C19.4728 32.3132 19.09 33.2501 19.0425 34.2329C19.092 35.2141 19.4756 36.149 20.1298 36.8821C20.7839 37.6151 21.6692 38.1024 22.6385 38.2629V30.194Z" fill="white"/>
<path d="M37.8912 44.1971H34.2243C33.9307 44.1971 33.6491 44.0805 33.4415 43.8729C33.2338 43.6652 33.1172 43.3836 33.1172 43.09C33.1172 42.7964 33.2338 42.5148 33.4415 42.3071C33.6491 42.0995 33.9307 41.9828 34.2243 41.9828H37.8912C38.4644 41.9828 39.0141 41.7552 39.4193 41.3499C39.8246 40.9446 40.0523 40.3949 40.0523 39.8217V39.3346C40.0523 39.0409 40.169 38.7593 40.3766 38.5517C40.5842 38.3441 40.8658 38.2274 41.1595 38.2274C41.4531 38.2274 41.7347 38.3441 41.9423 38.5517C42.15 38.7593 42.2666 39.0409 42.2666 39.3346V39.8217C42.2666 40.9821 41.8056 42.095 40.9851 42.9156C40.1645 43.7362 39.0516 44.1971 37.8912 44.1971Z" fill="white"/>
<path d="M32.3282 46.2786H30.1405C29.3371 46.2786 28.5666 45.9595 27.9985 45.3914C27.4305 44.8233 27.1113 44.0528 27.1113 43.2494V43.1254C27.1137 42.3236 27.4338 41.5554 28.0017 40.9892C28.5695 40.4231 29.3386 40.1052 30.1405 40.1052H32.3282C33.1292 40.1052 33.8974 40.4234 34.4639 40.9898C35.0303 41.5562 35.3485 42.3244 35.3485 43.1254V43.2494C35.3485 44.0513 35.0306 44.8204 34.4644 45.3883C33.8982 45.9561 33.13 46.2762 32.3282 46.2786ZM30.1582 42.3194C29.9436 42.3194 29.7377 42.4041 29.5851 42.555C29.4325 42.7059 29.3457 42.9109 29.3433 43.1254V43.2494C29.3433 43.4656 29.4292 43.6728 29.582 43.8256C29.7348 43.9785 29.9421 44.0643 30.1582 44.0643H32.3282C32.5428 44.062 32.7478 43.9751 32.8987 43.8225C33.0496 43.67 33.1342 43.464 33.1342 43.2494V43.1254C33.1342 42.9117 33.0493 42.7067 32.8981 42.5555C32.747 42.4044 32.542 42.3194 32.3282 42.3194H30.1582Z" fill="white"/>
</g>
<path d="M58 31C58 45.9117 45.9117 58 31 58C16.0883 58 4 45.9117 4 31C4 16.0883 16.0883 4 31 4C45.9117 4 58 16.0883 58 31ZM5.32363 31C5.32363 45.1807 16.8193 56.6764 31 56.6764C45.1807 56.6764 56.6764 45.1807 56.6764 31C56.6764 16.8193 45.1807 5.32363 31 5.32363C16.8193 5.32363 5.32363 16.8193 5.32363 31Z" fill="white"/>
<defs>
<clipPath id="clip0_6_9874">
<rect width="31" height="31" fill="white" transform="translate(15.5 15.5)"/>
</clipPath>
</defs>
</svg>
