<svg width="40" height="40" viewBox="0 0 40 40" fill="none" xmlns="http://www.w3.org/2000/svg">
<circle cx="20" cy="19.9998" r="20" fill="white"/>
<circle cx="20" cy="19.9998" r="19.5" stroke="#696969" stroke-opacity="0.84"/>
<path d="M27.4796 14.1488H26.7755V9.70198C26.7755 9.31421 26.4603 8.99985 26.0714 8.99985H12.9286C12.5397 8.99985 12.2245 9.31421 12.2245 9.70198V14.1488H11.5204C9.57926 14.1488 8 15.7237 8 17.6594V27.4892C8 29.425 9.57926 30.9998 11.5204 30.9998H27.4796C29.4207 30.9998 31 29.425 31 27.4892V17.6594C31 15.7237 29.4207 14.1488 27.4796 14.1488ZM13.6327 10.4041H25.3673V14.1488H13.6327V10.4041ZM29.5918 27.4892C29.5918 28.6507 28.6443 29.5956 27.4796 29.5956H11.5204C10.3557 29.5956 9.40816 28.6507 9.40816 27.4892V17.6594C9.40816 16.498 10.3557 15.553 11.5204 15.553H27.4796C28.6443 15.553 29.5918 16.498 29.5918 17.6594V27.4892ZM24.1056 18.783C23.5596 18.783 23.0382 18.9425 22.5931 19.2397C22.1479 18.9424 21.6265 18.783 21.0805 18.783C20.3423 18.783 19.649 19.0745 19.1283 19.604C18.9401 19.7953 18.7852 20.0077 18.6636 20.2339H12.9286C12.5397 20.2339 12.2245 20.5483 12.2245 20.936C12.2245 21.3238 12.5397 21.6381 12.9286 21.6381H18.3297C18.3415 22.1272 18.4791 22.6136 18.7426 23.0424H17.1531C16.7642 23.0424 16.449 23.3568 16.449 23.7445C16.449 24.1323 16.7642 24.4467 17.1531 24.4467H19.9694C19.9875 24.4467 20.0053 24.446 20.023 24.4446L21.4328 25.8782C21.742 26.1925 22.154 26.3656 22.593 26.3657C23.0321 26.3657 23.4442 26.1926 23.7534 25.8782C23.7534 25.8782 26.0373 23.556 26.0583 23.5345C27.1237 22.4506 27.1236 20.6876 26.0579 19.604C25.5372 19.0745 24.8439 18.783 24.1056 18.783ZM25.0525 22.5518L25.052 22.5523C25.0266 22.5781 22.748 24.895 22.748 24.895C22.6939 24.9499 22.6339 24.9615 22.5931 24.9615C22.5522 24.9615 22.4922 24.9499 22.4382 24.895L20.1336 22.5518C19.601 22.0101 19.601 21.1289 20.1336 20.5872C20.3873 20.3293 20.7236 20.1872 21.0805 20.1872C21.4374 20.1872 21.7737 20.3293 22.0274 20.5873C22.0414 20.6015 22.0548 20.6159 22.068 20.6306C22.1614 20.7343 22.3535 20.8632 22.6072 20.8632C22.8022 20.8632 22.987 20.7757 23.1175 20.6312C23.1309 20.6164 23.1446 20.6017 23.1588 20.5873C23.4124 20.3293 23.7487 20.1873 24.1056 20.1873C24.4625 20.1873 24.7987 20.3293 25.0524 20.5873C25.5852 21.1289 25.5852 22.0101 25.0525 22.5518Z" fill="#818181"/>
</svg>
