<svg width="12" height="12" viewBox="0 0 12 12" fill="none" xmlns="http://www.w3.org/2000/svg">
<g clip-path="url(#clip0_6_7679)">
<path d="M11.2391 6C11.2391 5.83875 11.325 5.62313 11.4082 5.41425C11.5492 5.06063 11.7094 4.65937 11.5729 4.25662C11.4326 3.84262 11.0512 3.60713 10.7152 3.399C10.524 3.28087 10.3271 3.15862 10.2337 3.036C10.1396 2.91225 10.0815 2.70413 10.0196 2.48362C9.9165 2.11425 9.79875 1.69538 9.43837 1.44413C9.08662 1.19963 8.64337 1.22137 8.2515 1.24012C8.01825 1.25137 7.77712 1.26337 7.61475 1.21275C7.46662 1.16662 7.29487 1.03313 7.113 0.891375C6.8025 0.649125 6.45037 0.375 6 0.375C5.54962 0.375 5.1975 0.649125 4.88662 0.891375C4.70512 1.03313 4.53337 1.16662 4.38487 1.21275C4.2225 1.263 3.98137 1.25137 3.74812 1.24012C3.35737 1.22212 2.913 1.2 2.56125 1.44525C2.20087 1.69575 2.0835 2.115 1.98037 2.48438C1.91812 2.70487 1.86 2.913 1.76587 3.03675C1.67287 3.159 1.47562 3.28087 1.28475 3.39862C0.948748 3.60712 0.567373 3.843 0.426748 4.25662C0.290623 4.65937 0.450373 5.06063 0.591373 5.41425C0.674623 5.62313 0.760873 5.83875 0.760873 6C0.760873 6.16125 0.674998 6.37687 0.591748 6.58575C0.450748 6.93937 0.290623 7.34063 0.427123 7.74337C0.567373 8.15737 0.948748 8.39288 1.28475 8.601C1.476 8.71913 1.67287 8.84137 1.76625 8.964C1.86037 9.08775 1.9185 9.29588 1.98037 9.51638C2.0835 9.88575 2.20125 10.3046 2.56162 10.5559C2.91337 10.8004 3.35587 10.7783 3.7485 10.7599C3.98212 10.749 4.22362 10.737 4.38525 10.7873C4.53337 10.8334 4.70512 10.9669 4.887 11.1086C5.1975 11.3509 5.54962 11.625 6 11.625C6.45037 11.625 6.8025 11.3509 7.11337 11.1086C7.29487 10.9669 7.46662 10.8334 7.61512 10.7873C7.7775 10.737 8.01825 10.7483 8.25187 10.7599C8.64262 10.7786 9.08737 10.8004 9.43875 10.5551C9.79912 10.3042 9.9165 9.88538 10.02 9.516C10.0819 9.2955 10.14 9.08737 10.2341 8.96362C10.3271 8.84138 10.5244 8.7195 10.7152 8.60138C11.0512 8.39287 11.4326 8.157 11.5732 7.74337C11.7094 7.34063 11.5496 6.93937 11.4086 6.58575C11.3254 6.37687 11.2391 6.16125 11.2391 6ZM10.7119 6.86325C10.8097 7.10813 10.9102 7.36163 10.8626 7.50225C10.8086 7.66088 10.5604 7.81463 10.3204 7.96313C10.0717 8.11688 9.81412 8.27625 9.63712 8.50912C9.45637 8.74687 9.37575 9.0345 9.29775 9.31312C9.225 9.57337 9.14925 9.84263 9.00975 9.93975C8.868 10.0388 8.57287 10.0245 8.28787 10.0103C7.99012 9.99563 7.68075 9.981 7.392 10.0706C7.11337 10.1572 6.879 10.3403 6.65175 10.5165C6.41587 10.701 6.19275 10.875 6 10.875C5.80725 10.875 5.58412 10.701 5.34787 10.5169C5.121 10.3403 4.88662 10.1576 4.60762 10.071C4.42725 10.0151 4.23937 9.99975 4.05075 9.99975C3.9375 9.99975 3.82425 10.0057 3.71212 10.0106C3.42712 10.0249 3.132 10.0387 2.99025 9.94012C2.85075 9.84262 2.77537 9.57375 2.70225 9.3135C2.62425 9.03525 2.54362 8.74725 2.36287 8.5095C2.1855 8.27662 1.92825 8.11688 1.67925 7.96313C1.43925 7.81463 1.191 7.6605 1.13737 7.50225C1.08975 7.36163 1.19062 7.10813 1.28812 6.86325C1.39237 6.6015 1.51087 6.30487 1.51087 6C1.51087 5.69513 1.39275 5.3985 1.28812 5.13675C1.19025 4.89187 1.08975 4.63838 1.13737 4.49775C1.19137 4.33913 1.43962 4.18538 1.67962 4.03688C1.92825 3.88313 2.18587 3.72375 2.36287 3.49088C2.54362 3.25312 2.62425 2.9655 2.70225 2.68687C2.775 2.42663 2.85037 2.15737 2.99025 2.06025C3.13162 1.96088 3.42637 1.97438 3.71212 1.98975C4.00987 2.00438 4.31925 2.019 4.608 1.92937C4.88662 1.84275 5.121 1.65975 5.34825 1.4835C5.58412 1.299 5.80725 1.125 6 1.125C6.19275 1.125 6.41587 1.299 6.65212 1.48312C6.879 1.65975 7.11337 1.84238 7.39237 1.929C7.68112 2.01863 7.98937 2.00325 8.28825 1.98937C8.57362 1.97475 8.86837 1.96088 9.01012 2.05988C9.14962 2.15737 9.225 2.42625 9.29812 2.6865C9.37612 2.96475 9.45675 3.25275 9.6375 3.4905C9.81487 3.72337 10.0721 3.88313 10.3211 4.03688C10.5611 4.18538 10.8094 4.3395 10.863 4.49775C10.9106 4.63838 10.8097 4.89187 10.7122 5.13675C10.608 5.39813 10.4895 5.69475 10.4895 6C10.4895 6.30525 10.6076 6.6015 10.7119 6.86325Z" fill="#0C720A"/>
<path d="M4.5 5.25C4.91421 5.25 5.25 4.91421 5.25 4.5C5.25 4.08579 4.91421 3.75 4.5 3.75C4.08579 3.75 3.75 4.08579 3.75 4.5C3.75 4.91421 4.08579 5.25 4.5 5.25Z" fill="#0C720A"/>
<path d="M7.5 8.25C7.91421 8.25 8.25 7.91421 8.25 7.5C8.25 7.08579 7.91421 6.75 7.5 6.75C7.08579 6.75 6.75 7.08579 6.75 7.5C6.75 7.91421 7.08579 8.25 7.5 8.25Z" fill="#0C720A"/>
<path d="M7.31801 3.80367C7.13988 3.69717 6.91001 3.75492 6.80351 3.93229L4.55351 7.68229C4.44701 7.86004 4.50438 8.09029 4.68213 8.19679C4.74213 8.23279 4.80888 8.25004 4.87451 8.25004C5.00201 8.25004 5.12613 8.18517 5.19626 8.06817L7.44626 4.31817C7.55313 4.14042 7.49538 3.91017 7.31801 3.80367Z" fill="#0C720A"/>
</g>
<defs>
<clipPath id="clip0_6_7679">
<rect width="12" height="12" fill="white"/>
</clipPath>
</defs>
</svg>
