<svg width="62" height="62" viewBox="0 0 62 62" fill="none" xmlns="http://www.w3.org/2000/svg">
<circle cx="31" cy="31" r="31" fill="#FBFAFA"/>
<path d="M44.9369 30.8465L40.9626 26.8718V21.2507C40.9626 21.1318 40.8662 21.0353 40.7472 21.0353H35.1265L31.1523 17.0606C31.0715 16.9798 30.9285 16.9798 30.8478 17.0606L26.8736 21.0353H21.2526C21.1337 21.0353 21.0373 21.1318 21.0373 21.2507V26.8718L17.0631 30.8465C16.979 30.9307 16.979 31.067 17.0631 31.1511L21.0373 35.1257V40.7468C21.0373 40.8658 21.1337 40.9622 21.2526 40.9622H26.8735L30.8477 44.9369C30.8881 44.9773 30.9428 45 31 45C31.0571 45 31.1119 44.9773 31.1523 44.9369L35.1265 40.9622H40.7472C40.8662 40.9622 40.9626 40.8658 40.9626 40.7468V35.1257L44.9369 31.1511C44.9773 31.1107 45 31.0559 45 30.9987C45 30.9416 44.9773 30.8868 44.9369 30.8465ZM37.8639 33.8421V37.8631H33.8429L31 40.7064L28.1571 37.8631H24.136V33.8421L21.2932 30.9987L24.136 28.1554V24.1344H28.1571L31 21.2911L33.8429 24.1344H37.8639V28.1554L40.7068 30.9987L37.8639 33.8421Z" fill="url(#paint0_linear_745_106082)"/>
<path d="M36.7212 25.2786H33.3702L31.0012 22.9091L28.6321 25.2786H25.2812V28.6293L22.9121 30.9988L25.2812 33.3682V36.719H28.6321L31.0012 39.0885L33.3701 36.719H36.7211V33.3682L39.0902 30.9988L36.7211 28.6293V25.2786H36.7212ZM35.1131 32.0505H33.5398L34.6522 33.1628L34.7094 34.7073L33.165 34.6501L32.0526 33.5377V35.1109L31.0012 36.2434L29.9497 35.1108V33.5374L28.8373 34.65L27.2929 34.7073L27.3501 33.1627L28.4625 32.0502L26.8893 32.0504L25.7569 30.9986L26.8893 29.947L28.4625 29.9468L27.3501 28.8345L27.2929 27.2899L28.8373 27.3472L29.9497 28.4597V26.8864L31.0012 25.7538L32.0527 26.8864V28.4597L33.1651 27.3472L34.7095 27.2899L34.6523 28.8345L33.5399 29.947H35.1132L36.2454 30.9986L35.1131 32.0505Z" fill="url(#paint1_linear_745_106082)"/>
<path d="M29.9897 28.5585L28.5605 29.9882V32.0097L29.9895 33.4393H32.0106L33.4394 32.0098V29.988L32.0106 28.5585H29.9897Z" fill="url(#paint2_linear_745_106082)"/>
<defs>
<linearGradient id="paint0_linear_745_106082" x1="33" y1="35" x2="43" y2="45" gradientUnits="userSpaceOnUse">
<stop stop-color="#8A1538"/>
<stop offset="1" stop-color="#D34E56"/>
</linearGradient>
<linearGradient id="paint1_linear_745_106082" x1="32.1567" y1="33.3101" x2="37.9351" y2="39.088" gradientUnits="userSpaceOnUse">
<stop stop-color="#8A1538"/>
<stop offset="1" stop-color="#D34E56"/>
</linearGradient>
<linearGradient id="paint2_linear_745_106082" x1="31.3485" y1="31.6961" x2="33.0916" y2="33.4386" gradientUnits="userSpaceOnUse">
<stop stop-color="#8A1538"/>
<stop offset="1" stop-color="#D34E56"/>
</linearGradient>
</defs>
</svg>
