<svg width="62" height="62" viewBox="0 0 62 62" fill="none" xmlns="http://www.w3.org/2000/svg">
<circle cx="31" cy="31" r="31" fill="#FBFAFA"/>
<path d="M30.9432 29.9909C32.0132 29.1401 32.8641 28.0457 33.425 26.799C30.116 25.0257 21.6661 25.1439 18.1207 29.2816C17.9828 30.2608 17.963 31.2531 18.0616 32.237C21.4297 29.4589 27.3387 28.2767 30.9432 29.9909Z" fill="url(#paint0_linear_745_106068)"/>
<path d="M34.0748 25.1438C34.843 22.8385 35.0203 20.3559 34.4293 18.4644C31.6641 17.7028 28.7244 17.8817 26.0718 18.973C23.4193 20.0643 21.2044 22.0062 19.775 24.4936C19.4207 25.0741 19.1239 25.6878 18.8887 26.3259C23.3795 23.4296 30.4112 23.3114 34.0748 25.1438Z" fill="url(#paint1_linear_745_106068)"/>
<path d="M24.3861 31.2322C22.0225 31.7642 19.777 32.8281 18.418 34.3059C19.3153 37.6646 21.5029 40.5327 24.5042 42.2856C27.0754 43.7726 30.0845 44.3161 33.0132 43.8224C28.2269 41.399 24.6224 35.3107 24.3861 31.2322Z" fill="url(#paint2_linear_745_106068)"/>
<path d="M30.1153 31.5276C28.8577 31.034 27.4995 30.8515 26.1562 30.9956C26.2744 34.7195 30.588 41.9899 35.9652 42.9948C36.8851 42.6269 37.7579 42.1507 38.5652 41.5761C34.4289 40.0393 30.4698 35.4879 30.1153 31.5276Z" fill="url(#paint3_linear_745_106068)"/>
<path d="M31.8867 31.4683C32.098 32.8134 32.6243 34.0895 33.4229 35.1922C36.6134 33.2416 40.6901 25.8529 38.9176 20.7104C38.48 20.3286 38.0049 19.9919 37.4996 19.7056L36.377 19.1736C37.086 23.4886 35.1363 29.2221 31.8867 31.4683Z" fill="url(#paint4_linear_745_106068)"/>
<path d="M41.1071 22.8381C41.4025 28.158 37.9757 34.3644 34.5488 36.6106C36.1441 38.3838 38.212 39.8025 40.1617 40.2162C40.9969 39.4308 41.6958 38.512 42.2297 37.4972C43.5589 35.2308 44.1638 32.6119 43.9631 29.9918C43.7625 27.3717 42.7659 24.8756 41.1071 22.8381Z" fill="url(#paint5_linear_745_106068)"/>
<defs>
<linearGradient id="paint0_linear_745_106068" x1="26.8143" y1="29.9072" x2="28.486" y2="33.8599" gradientUnits="userSpaceOnUse">
<stop stop-color="#8A1538"/>
<stop offset="1" stop-color="#D34E56"/>
</linearGradient>
<linearGradient id="paint1_linear_745_106068" x1="27.97" y1="23.3524" x2="30.4147" y2="28.0187" gradientUnits="userSpaceOnUse">
<stop stop-color="#8A1538"/>
<stop offset="1" stop-color="#D34E56"/>
</linearGradient>
<linearGradient id="paint2_linear_745_106068" x1="26.7581" y1="39.44" x2="31.2775" y2="44.6063" gradientUnits="userSpaceOnUse">
<stop stop-color="#8A1538"/>
<stop offset="1" stop-color="#D34E56"/>
</linearGradient>
<linearGradient id="paint3_linear_745_106068" x1="33.2471" y1="38.6923" x2="37.5477" y2="43.1221" gradientUnits="userSpaceOnUse">
<stop stop-color="#8A1538"/>
<stop offset="1" stop-color="#D34E56"/>
</linearGradient>
<linearGradient id="paint4_linear_745_106068" x1="36.1501" y1="29.4712" x2="40.5293" y2="31.5109" gradientUnits="userSpaceOnUse">
<stop stop-color="#8A1538"/>
<stop offset="1" stop-color="#D34E56"/>
</linearGradient>
<linearGradient id="paint5_linear_745_106068" x1="39.9499" y1="34.0098" x2="45.16" y2="36.8435" gradientUnits="userSpaceOnUse">
<stop stop-color="#8A1538"/>
<stop offset="1" stop-color="#D34E56"/>
</linearGradient>
</defs>
</svg>
