<svg width="62" height="62" viewBox="0 0 62 62" fill="none" xmlns="http://www.w3.org/2000/svg">
<circle cx="31" cy="31" r="31" fill="#FBFAFA"/>
<path d="M38.888 23.6866C40.1601 24.9328 41.0873 26.4615 41.586 28.1348H45V33.8614H41.586C41.0879 35.5361 40.1607 37.0661 38.888 38.3134L40.598 41.1376L35.402 44L33.696 41.1758C31.927 41.6015 30.075 41.6015 28.306 41.1758L26.598 44L21.402 41.1376L23.112 38.3134C21.8393 37.0661 20.9121 35.5361 20.414 33.8614H17V28.1367H20.414C20.9121 26.462 21.8393 24.932 23.112 23.6847L21.4 20.8624L26.594 18H26.6L28.308 20.8204C30.077 20.3947 31.929 20.3947 33.698 20.8204L35.4 18H35.404L40.6 20.8624L38.89 23.6866H38.888ZM37 30.999C37 29.4807 36.3679 28.0246 35.2426 26.951C34.1174 25.8774 32.5913 25.2743 31 25.2743C29.4087 25.2743 27.8826 25.8774 26.7574 26.951C25.6321 28.0246 25 29.4807 25 30.999C25 32.5173 25.6321 33.9735 26.7574 35.0471C27.8826 36.1207 29.4087 36.7238 31 36.7238C32.5913 36.7238 34.1174 36.1207 35.2426 35.0471C36.3679 33.9735 37 32.5173 37 30.999Z" fill="url(#paint0_linear_745_106061)"/>
<defs>
<linearGradient id="paint0_linear_745_106061" x1="33" y1="34.7143" x2="42.2603" y2="44.6869" gradientUnits="userSpaceOnUse">
<stop stop-color="#8A1538"/>
<stop offset="1" stop-color="#D34E56"/>
</linearGradient>
</defs>
</svg>
