<svg width="62" height="62" viewBox="0 0 62 62" fill="none" xmlns="http://www.w3.org/2000/svg">
<circle cx="31" cy="31" r="31" fill="#FBFAFA"/>
<path d="M28.4545 30.9518L40.8181 26.6201V33.8219C40.0835 33.4099 39.2099 33.171 38.2727 33.171C35.6619 33.171 33.5455 35.0248 33.5455 37.3115C33.5455 39.5982 35.6619 41.452 38.2727 41.452C40.8835 41.452 43 39.5982 43 37.3115V25.1401C43 23.6841 43 22.463 42.8831 21.4901C42.8665 21.3526 42.8469 21.2159 42.8253 21.0884C42.7127 20.4237 42.5136 19.8037 42.1293 19.2859C41.9371 19.027 41.6987 18.7937 41.4016 18.5932C41.3459 18.5556 41.288 18.5191 41.2281 18.4839L41.2161 18.4768C40.1875 17.8772 39.0311 17.9201 37.8397 18.186C36.6876 18.4431 35.2592 18.9668 33.5077 19.6089L30.4617 20.7255C29.6408 21.0265 28.9452 21.2814 28.3992 21.5455C27.8183 21.8265 27.318 22.1579 26.9428 22.6518C26.5675 23.1456 26.4117 23.6778 26.34 24.2556C26.2727 24.7987 26.2727 25.4591 26.2727 26.2387V36.3699C25.538 35.9579 24.6645 35.719 23.7273 35.719C21.1165 35.719 19 37.5728 19 39.8595C19 42.1462 21.1165 44 23.7273 44C26.3381 44 28.4545 42.1462 28.4545 39.8595V30.9518Z" fill="url(#paint0_linear_745_106054)"/>
<defs>
<linearGradient id="paint0_linear_745_106054" x1="32.7143" y1="34.7143" x2="41.9703" y2="43.2583" gradientUnits="userSpaceOnUse">
<stop stop-color="#8A1538"/>
<stop offset="1" stop-color="#D34E56"/>
</linearGradient>
</defs>
</svg>
