<svg width="62" height="62" viewBox="0 0 62 62" fill="none" xmlns="http://www.w3.org/2000/svg">
<circle cx="31" cy="31" r="31" fill="#FBFAFA"/>
<path d="M28.5009 42.3518C28.5004 42.928 28.6458 43.4949 28.9235 44H18.4005C17.7643 43.9985 17.1546 43.7457 16.7048 43.2969C16.2549 42.8482 16.0015 42.2399 16 41.6053V38.0141C16.0045 36.4279 16.6381 34.908 17.7624 33.7864C18.8868 32.6648 20.4104 32.0327 22.0004 32.0282H32.3793C32.5991 32.7614 32.9573 33.4459 33.4346 34.0449C32.0552 34.2814 30.8038 34.9963 29.9011 36.0634C28.9985 37.1306 28.5026 38.4814 28.5009 39.8777V42.3518ZM27.4002 30.2326C26.1875 30.2326 25.0021 29.8739 23.9939 29.2018C22.9856 28.5298 22.1998 27.5745 21.7357 26.4569C21.2717 25.3393 21.1503 24.1095 21.3868 22.9231C21.6234 21.7366 22.2074 20.6468 23.0648 19.7914C23.9223 18.936 25.0147 18.3535 26.204 18.1175C27.3933 17.8815 28.6261 18.0027 29.7464 18.4656C30.8667 18.9285 31.8243 19.7125 32.498 20.7183C33.1717 21.7241 33.5313 22.9066 33.5313 24.1163C33.5313 25.7385 32.8853 27.2942 31.7355 28.4412C30.5857 29.5882 29.0262 30.2326 27.4002 30.2326ZM46 42.3518C45.9985 42.7885 45.824 43.2069 45.5144 43.5156C45.2049 43.8244 44.7856 43.9985 44.3479 44H31.953C31.5153 43.9985 31.0959 43.8244 30.7864 43.5156C30.4769 43.2069 30.3024 42.7885 30.3009 42.3518V39.8777C30.3044 38.786 30.7407 37.74 31.5145 36.968C32.2883 36.1961 33.3369 35.7608 34.4312 35.7573H41.8678C42.9621 35.7608 44.0107 36.1961 44.7845 36.968C45.5583 37.74 45.9946 38.786 45.9981 39.8777L46 42.3518ZM42.3717 30.3082C42.3717 31.1411 42.1242 31.9553 41.6603 32.6478C41.1965 33.3403 40.5372 33.8801 39.7659 34.1988C38.9945 34.5175 38.1458 34.6009 37.3269 34.4384C36.5081 34.2759 35.7559 33.8749 35.1655 33.2859C34.5752 32.697 34.1731 31.9467 34.0103 31.1298C33.8474 30.3129 33.931 29.4662 34.2505 28.6967C34.57 27.9272 35.111 27.2695 35.8052 26.8068C36.4994 26.3441 37.3155 26.0971 38.1504 26.0971C39.27 26.0971 40.3437 26.5408 41.1353 27.3305C41.927 28.1203 42.3717 29.1914 42.3717 30.3082Z" fill="url(#paint0_linear_745_106047)"/>
<defs>
<linearGradient id="paint0_linear_745_106047" x1="33.1429" y1="34.7143" x2="42.3343" y2="45.3198" gradientUnits="userSpaceOnUse">
<stop stop-color="#8A1538"/>
<stop offset="1" stop-color="#D34E56"/>
</linearGradient>
</defs>
</svg>
