<svg width="62" height="62" viewBox="0 0 62 62" fill="none" xmlns="http://www.w3.org/2000/svg">
<circle cx="31" cy="31" r="31" fill="#FBFAFA"/>
<path d="M43.9038 33.1604L41.471 28.3606C41.4765 28.2162 41.4829 28.0726 41.4829 27.9282C41.4829 21.8929 36.2253 17 29.7419 17C23.2568 17 18 21.8929 18 27.9282C18 31.3215 19.6617 34.3541 22.2699 36.3587V40.2211C22.2699 40.5979 22.5113 40.9389 22.8841 41.0859L32.6081 44.9251C32.9203 45.0482 33.2764 45.0183 33.5583 44.8448C33.8411 44.6705 34.0109 44.3765 34.0109 44.0621V40.7885C34.0109 40.2706 34.4626 39.8494 35.0198 39.8494H39.9994C40.5566 39.8494 41.0074 39.4289 41.0074 38.9111V36.0887C41.0074 35.729 41.2286 35.4009 41.5756 35.2436L43.431 34.4054C43.9286 34.1798 44.1389 33.6252 43.9038 33.1604ZM34.805 28.3615C34.805 28.5948 34.6627 28.8972 34.491 29.0331L29.6455 32.8502C29.4738 32.986 29.1902 32.986 29.0175 32.8502L24.172 29.0331C23.9994 28.8972 23.858 28.5947 23.858 28.3615V25.7689C23.858 25.5356 23.9811 25.2101 24.1316 25.0452L25.2984 23.7634C25.449 23.5985 25.7446 23.4635 25.9585 23.4635H27.4411C27.6532 23.4635 27.9369 23.6122 28.0727 23.7925L29.0872 25.1546C29.2212 25.3349 29.4416 25.3349 29.5757 25.1546L30.5901 23.7925C30.726 23.6122 31.0097 23.4635 31.2217 23.4635H32.7063C32.9183 23.4635 33.2149 23.5985 33.3645 23.7634L34.5323 25.0452C34.6819 25.2101 34.805 25.5357 34.805 25.7689V28.3615H34.805Z" fill="url(#paint0_linear_745_106040)"/>
<defs>
<linearGradient id="paint0_linear_745_106040" x1="32.8571" y1="35" x2="42.8297" y2="44.2603" gradientUnits="userSpaceOnUse">
<stop stop-color="#8A1538"/>
<stop offset="1" stop-color="#D34E56"/>
</linearGradient>
</defs>
</svg>
