<svg width="81" height="24" viewBox="0 0 81 24" fill="none" xmlns="http://www.w3.org/2000/svg">
<rect x="0.740519" y="1.15507" width="78.719" height="21.5879" rx="10.7939" stroke="white" stroke-width="1.35099"/>
<g filter="url(#filter0_ii_5_3792)">
<path d="M9.13903 6.95337C8.97186 7.07803 8.87305 7.2715 8.87305 7.52203V16.4732C8.87305 16.7241 8.97186 16.9172 9.13903 17.0419L9.18154 17.071L16.2988 12.0567V11.9976V11.9385L9.18154 6.92383L9.13903 6.95337Z" fill="#B7B2B2"/>
<path d="M18.6709 13.7295L16.2988 12.0576V11.9985V11.9394L18.6714 10.2678L18.7249 10.2893L21.5358 11.4144C22.3384 11.7358 22.3384 12.2616 21.5358 12.5833L18.7249 13.7085L18.6709 13.7295Z" fill="#DFDFDF"/>
<g filter="url(#filter1_i_5_3792)">
<path d="M18.7245 13.7079L16.2979 11.9983L9.13867 17.0425C9.40293 17.24 9.84011 17.2643 10.3324 17.0676L18.7245 13.7079Z" fill="white"/>
</g>
<path d="M18.7245 10.2888L10.3324 6.92948C9.84011 6.73237 9.40293 6.75706 9.13867 6.95457L16.2984 11.9988L18.7245 10.2888Z" fill="white"/>
</g>
<path d="M40.187 12.4887C38.9108 12.4887 37.8707 13.1696 37.8707 14.1074C37.8707 15.0394 38.9108 15.726 40.187 15.726C41.4636 15.726 42.5038 15.0394 42.5038 14.1074C42.5032 13.1696 41.4631 12.4887 40.187 12.4887ZM40.187 15.0889C39.4876 15.0889 38.8848 14.6843 38.8848 14.1077C38.8848 13.5251 39.4881 13.1266 40.187 13.1266C40.8863 13.1266 41.4891 13.5251 41.4891 14.1077C41.4891 14.6839 40.8863 15.0889 40.187 15.0889ZM35.1334 12.4887C33.8572 12.4887 32.8171 13.1696 32.8171 14.1074C32.8171 15.0394 33.8572 15.726 35.1334 15.726C36.4101 15.726 37.4502 15.0394 37.4502 14.1074C37.4502 13.1696 36.4101 12.4887 35.1334 12.4887ZM35.1334 15.0889C34.434 15.0889 33.8312 14.6843 33.8312 14.1077C33.8312 13.5251 34.4345 13.1266 35.1334 13.1266C35.8328 13.1266 36.4356 13.5251 36.4356 14.1077C36.4361 14.6839 35.8328 15.0889 35.1334 15.0889ZM29.1227 12.9858V13.6724H31.4655C31.3956 14.0586 31.2122 14.3407 30.9322 14.5367C30.5914 14.7757 30.0581 15.0394 29.1227 15.0394C27.6805 15.0394 26.553 14.2238 26.553 13.2122C26.553 12.2006 27.6805 11.3851 29.1227 11.3851C29.9007 11.3851 30.4688 11.5997 30.8882 11.8756L31.5789 11.3911C30.993 10.9988 30.2154 10.6985 29.1227 10.6985C27.1472 10.6985 25.4863 11.8265 25.4863 13.2122C25.4863 14.5979 27.1472 15.726 29.1227 15.726C30.1889 15.726 30.9935 15.4805 31.6224 15.0208C32.2691 14.5671 32.4704 13.9293 32.4704 13.4143C32.4704 13.2552 32.453 13.108 32.4178 12.9854L29.1227 12.9858ZM53.7058 13.519C53.5138 13.1574 52.9278 12.4887 51.7303 12.4887C50.5415 12.4887 49.5535 13.1449 49.5535 14.1074C49.5535 15.0147 50.5328 15.726 51.8437 15.726C52.9012 15.726 53.5132 15.2723 53.7672 15.0086L52.9804 14.6406C52.7183 14.9104 52.3597 15.0881 51.8437 15.0881C51.3283 15.0881 50.9609 14.9226 50.7249 14.5976L53.8106 13.7024L53.7058 13.519ZM50.5589 14.0586C50.5328 13.433 51.2496 13.1144 51.7656 13.1144C52.1676 13.1144 52.5084 13.2556 52.6223 13.4577L50.5589 14.0586ZM48.0505 15.6282H49.0641V10.8705H48.0505V15.6282ZM46.3892 12.8507H46.3544C46.1271 12.6604 45.6898 12.4887 45.1396 12.4887C43.9855 12.4887 42.9281 13.2001 42.9281 14.1138C42.9281 15.0211 43.9855 15.7264 45.1396 15.7264C45.6903 15.7264 46.1271 15.5547 46.3544 15.3587H46.3892V15.5916C46.3892 16.2108 45.9171 16.5419 45.157 16.5419C44.5363 16.5419 44.1516 16.2295 43.9942 15.9657L43.1115 16.2234C43.3648 16.6523 44.0376 17.1798 45.157 17.1798C46.3458 17.1798 47.3512 16.6892 47.3512 15.4934V12.5873H46.3897L46.3892 12.8507ZM45.227 15.0889C44.5276 15.0889 43.9421 14.6779 43.9421 14.1138C43.9421 13.5433 44.5276 13.1266 45.227 13.1266C45.9171 13.1266 46.4592 13.5433 46.4592 14.1138C46.4592 14.6779 45.9171 15.0889 45.227 15.0889ZM58.4556 10.8705H56.0297V15.6282H57.0416V13.8257H58.455C59.5771 13.8257 60.6807 13.256 60.6807 12.3483C60.6807 11.4406 59.5776 10.8705 58.4556 10.8705ZM58.4816 13.1635H57.0416V11.5327H58.4816C59.2385 11.5327 59.6682 11.9723 59.6682 12.3483C59.6682 12.7167 59.2385 13.1635 58.4816 13.1635ZM64.7386 12.4804C64.0056 12.4804 63.2465 12.7068 62.9324 13.2088L63.8309 13.4718C64.023 13.2088 64.3811 13.1228 64.756 13.1228C65.2796 13.1228 65.8119 13.3432 65.8205 13.7348V13.7839C65.6371 13.7104 65.2443 13.6004 64.7647 13.6004C63.7962 13.6004 62.8098 13.9738 62.8098 14.6714C62.8098 15.3081 63.6041 15.718 64.4939 15.718C65.1743 15.718 65.5498 15.5037 65.7853 15.2525H65.82V15.6198H66.7977V13.7957C66.7983 12.9515 65.8987 12.4804 64.7386 12.4804ZM64.616 15.0877C64.285 15.0877 63.8222 14.9713 63.8222 14.6836C63.8222 14.3163 64.3984 14.1755 64.896 14.1755C65.3404 14.1755 65.5503 14.2429 65.8205 14.3346C65.7419 14.7757 65.2009 15.0877 64.616 15.0877ZM70.3581 12.5843L69.1976 14.647H69.1628L67.9583 12.5843H66.8677L68.674 15.4672L67.6441 17.071H68.7L71.484 12.5843H70.3581ZM61.2395 15.6282H62.2515V10.8705H61.2395V15.6282Z" fill="white"/>
<path d="M28.9954 8.05576C28.9954 8.3689 28.8609 8.61815 28.5915 8.80425C28.2858 9.02547 27.8868 9.13608 27.3967 9.13608C26.9273 9.13608 26.5278 9.02398 26.1998 8.79977C25.8713 8.57518 25.707 8.29716 25.707 7.96532C25.707 7.63311 25.8713 7.35509 26.1998 7.13088C26.5278 6.90629 26.9273 6.79419 27.3967 6.79419C27.6298 6.79419 27.8526 6.82558 28.0641 6.88798C28.276 6.95076 28.4457 7.03409 28.5725 7.13835L28.2869 7.33566C28.0716 7.15816 27.7751 7.06959 27.3962 7.06959C27.0536 7.06959 26.7576 7.15255 26.5077 7.31847C26.2578 7.48439 26.1331 7.7 26.1331 7.96495C26.1331 8.22989 26.2578 8.44551 26.5077 8.61143C26.7576 8.77734 27.0536 8.8603 27.3962 8.8603C27.7594 8.8603 28.0624 8.77697 28.3047 8.60993C28.4619 8.50119 28.553 8.34985 28.5774 8.1559H27.3962V7.88647H28.9721C28.9883 7.94514 28.9954 8.00157 28.9954 8.05576Z" fill="white"/>
<path d="M31.4945 7.11932H30.0135V7.83007H31.3492V8.0995H30.0135V8.81025H31.4945V9.08603H29.5955V6.84391H31.4945V7.11932Z" fill="white"/>
<path d="M33.2567 9.08603H32.8388V7.11932H31.9302V6.84391H34.1653V7.11932H33.2567V9.08603Z" fill="white"/>
<path d="M35.7823 9.08603V6.84391H36.2003V9.08603H35.7823Z" fill="white"/>
<path d="M38.0538 9.08603H37.6358V7.11932H36.7273V6.84391H38.9623V7.11932H38.0538V9.08603Z" fill="white"/>
<path d="M43.1933 8.79642C42.8734 9.02288 42.4761 9.1361 42.0007 9.1361C41.5252 9.1361 41.1279 9.02288 40.8086 8.79642C40.4888 8.56997 40.3294 8.29269 40.3294 7.96497C40.3294 7.63724 40.4888 7.35997 40.8086 7.13351C41.1279 6.90706 41.5252 6.79346 42.0007 6.79346C42.4734 6.79346 42.8702 6.90743 43.1911 7.13501C43.512 7.36258 43.6725 7.63911 43.6725 7.96497C43.6725 8.29269 43.5125 8.56997 43.1933 8.79642ZM41.117 8.60846C41.3577 8.77662 41.6521 8.86032 42.0007 8.86032C42.3492 8.86032 42.6441 8.77624 42.8843 8.60846C43.125 8.4403 43.2458 8.2258 43.2458 7.96497C43.2458 7.70413 43.125 7.48964 42.8843 7.32148C42.6441 7.15332 42.3492 7.06961 42.0007 7.06961C41.6521 7.06961 41.3577 7.15369 41.117 7.32148C40.8769 7.48964 40.756 7.70413 40.756 7.96497C40.756 8.2258 40.8769 8.4403 41.117 8.60846Z" fill="white"/>
<path d="M44.259 9.08603V6.84391H44.7675L46.3482 8.58791H46.3661L46.3482 8.15592V6.84391H46.7662V9.08603H46.3298L44.6759 7.25721H44.658L44.6759 7.68919V9.08603H44.259Z" fill="white"/>
<defs>
<filter id="filter0_ii_5_3792" x="8.87305" y="6.79346" width="13.2656" height="10.4102" filterUnits="userSpaceOnUse" color-interpolation-filters="sRGB">
<feFlood flood-opacity="0" result="BackgroundImageFix"/>
<feBlend mode="normal" in="SourceGraphic" in2="BackgroundImageFix" result="shape"/>
<feColorMatrix in="SourceAlpha" type="matrix" values="0 0 0 0 0 0 0 0 0 0 0 0 0 0 0 0 0 0 127 0" result="hardAlpha"/>
<feOffset dy="-0.357156"/>
<feComposite in2="hardAlpha" operator="arithmetic" k2="-1" k3="1"/>
<feColorMatrix type="matrix" values="0 0 0 0 0 0 0 0 0 0 0 0 0 0 0 0 0 0 0.12 0"/>
<feBlend mode="normal" in2="shape" result="effect1_innerShadow_5_3792"/>
<feColorMatrix in="SourceAlpha" type="matrix" values="0 0 0 0 0 0 0 0 0 0 0 0 0 0 0 0 0 0 127 0" result="hardAlpha"/>
<feOffset dy="0.357156"/>
<feComposite in2="hardAlpha" operator="arithmetic" k2="-1" k3="1"/>
<feColorMatrix type="matrix" values="0 0 0 0 1 0 0 0 0 1 0 0 0 0 1 0 0 0 0.25 0"/>
<feBlend mode="normal" in2="effect1_innerShadow_5_3792" result="effect2_innerShadow_5_3792"/>
</filter>
<filter id="filter1_i_5_3792" x="9.13867" y="11.9983" width="9.58594" height="5.20532" filterUnits="userSpaceOnUse" color-interpolation-filters="sRGB">
<feFlood flood-opacity="0" result="BackgroundImageFix"/>
<feBlend mode="normal" in="SourceGraphic" in2="BackgroundImageFix" result="shape"/>
<feColorMatrix in="SourceAlpha" type="matrix" values="0 0 0 0 0 0 0 0 0 0 0 0 0 0 0 0 0 0 127 0" result="hardAlpha"/>
<feOffset dy="-0.357156"/>
<feComposite in2="hardAlpha" operator="arithmetic" k2="-1" k3="1"/>
<feColorMatrix type="matrix" values="0 0 0 0 0 0 0 0 0 0 0 0 0 0 0 0 0 0 0.08 0"/>
<feBlend mode="normal" in2="shape" result="effect1_innerShadow_5_3792"/>
</filter>
</defs>
</svg>
