<svg width="23" height="29" viewBox="0 0 23 29" fill="none" xmlns="http://www.w3.org/2000/svg">
<path d="M21.7698 3.9875C22.4651 3.9875 23 4.44063 23 5.02969C23 5.61875 22.4651 6.07187 21.7698 6.07187H20.6465V15.4516H21.7698C22.4651 15.4516 23 15.9047 23 16.4938C23 17.0828 22.4651 17.5359 21.7698 17.5359H20.6465V27.9578C20.6465 28.5469 20.1116 29 19.4163 29H3.58372C2.88837 29 2.35349 28.5469 2.35349 27.9578V17.5359H1.23023C0.534884 17.5359 0 17.0828 0 16.4938C0 15.9047 0.534884 15.4516 1.23023 15.4516H2.35349V6.07187H1.23023C0.534884 6.07187 0 5.61875 0 5.02969C0 4.44063 0.534884 3.9875 1.23023 3.9875H21.7698ZM6.47209 2.08437C5.77674 2.08437 5.24186 1.63125 5.24186 1.04219C5.24186 0.453125 5.77674 0 6.47209 0H16.5814C17.2767 0 17.8116 0.453125 17.8116 1.04219C17.8116 1.63125 17.2767 2.08437 16.5814 2.08437H6.47209Z" fill="white"/>
<rect x="4.61169" y="6.18555" width="2.875" height="2.0998" rx="1.0499" fill="#545454"/>
<rect x="10.0303" y="6.18555" width="2.875" height="2.0998" rx="1.0499" fill="#545454"/>
<rect x="15.4446" y="6.18555" width="2.875" height="2.0998" rx="1.0499" fill="#545454"/>
<rect x="4.61169" y="9.47656" width="2.875" height="2.0998" rx="1.0499" fill="#545454"/>
<rect x="10.0303" y="9.47656" width="2.875" height="2.0998" rx="1.0499" fill="#545454"/>
<rect x="15.4446" y="9.47656" width="2.875" height="2.0998" rx="1.0499" fill="#545454"/>
<rect x="4.61169" y="12.7695" width="2.875" height="2.0998" rx="1.0499" fill="#545454"/>
<rect x="10.0303" y="12.7695" width="2.875" height="2.0998" rx="1.0499" fill="#545454"/>
<rect x="15.4446" y="12.7695" width="2.875" height="2.0998" rx="1.0499" fill="#545454"/>
<rect x="4.61169" y="16.0605" width="2.875" height="2.0998" rx="1.0499" fill="#545454"/>
<rect x="10.0303" y="16.0605" width="2.875" height="2.0998" rx="1.0499" fill="#545454"/>
<rect x="15.4446" y="16.0605" width="2.875" height="2.0998" rx="1.0499" fill="#545454"/>
<rect x="4.61169" y="19.3516" width="2.875" height="2.0998" rx="1.0499" fill="#545454"/>
<rect x="10.0303" y="19.3516" width="2.875" height="2.0998" rx="1.0499" fill="#545454"/>
<rect x="15.4446" y="19.3516" width="2.875" height="2.0998" rx="1.0499" fill="#545454"/>
<rect x="9.88965" y="23.0781" width="3.67733" height="5.55668" rx="1.83866" fill="#545454"/>
</svg>
