<svg width="67" height="32" viewBox="0 0 67 32" fill="none" xmlns="http://www.w3.org/2000/svg">
<path d="M66.9085 29.6074V31.997C64.786 32.0415 62.6876 31.5396 60.8151 30.5393C59.7854 29.9877 58.6709 29.6122 57.5174 29.4281C56.9352 29.3517 56.3483 29.3158 55.7611 29.3206C53.998 29.2699 52.2533 29.6906 50.7071 30.5393C48.8345 31.5396 46.7362 32.0415 44.6136 31.997C42.4911 32.0415 40.3928 31.5396 38.5202 30.5393C36.974 29.6906 35.2293 29.2699 33.4662 29.3206C31.6993 29.2702 29.9509 29.6908 28.4003 30.5393C26.5321 31.5398 24.4375 32.0419 22.3188 31.997C20.1923 32.0429 18.0898 31.5409 16.2134 30.5393C14.6671 29.6906 12.9225 29.2699 11.1594 29.3206C9.77034 29.2706 8.38736 29.5276 7.10903 30.0733C6.76254 30.2167 6.428 30.384 6.09345 30.5393C4.22087 31.5396 2.12253 32.0415 0 31.997V29.6074C1.68183 29.6607 3.34883 29.2779 4.83892 28.4962C4.91061 28.4604 4.99424 28.4245 5.06593 28.3887C5.88436 27.9704 6.74045 27.6304 7.62279 27.3731C8.77539 27.0622 9.96571 26.9134 11.1594 26.931C13.2819 26.8864 15.3803 27.3884 17.2528 28.3887C18.8029 29.2387 20.5517 29.6594 22.3188 29.6074C24.0819 29.6581 25.8265 29.2374 27.3727 28.3887C29.2453 27.3884 31.3437 26.8865 33.4662 26.931C35.5887 26.8864 37.6871 27.3884 39.5597 28.3887C41.1053 29.2389 42.8504 29.6597 44.6136 29.6074C46.3769 29.6597 48.122 29.2389 49.6676 28.3887C51.5402 27.3884 53.6385 26.8864 55.7611 26.931C56.0598 26.931 56.3346 26.943 56.6094 26.9549C57.7528 26.9978 58.8838 27.2071 59.9667 27.5762H59.9787C60.62 27.8083 61.2465 28.0796 61.8545 28.3887C63.4007 29.2374 65.1454 29.6581 66.9085 29.6074ZM65.5345 19.6189C65.5345 22.0085 63.8737 24.2308 61.8904 26.023C61.8784 26.011 61.8665 25.9991 61.8545 25.9991C61.2465 25.69 60.62 25.4187 59.9787 25.1866H59.9667C59.7875 25.1269 59.5964 25.0671 59.3932 25.0074C60.8397 23.9664 62.0155 22.5939 62.8223 21.0048C55.8567 21.8531 28.4003 24.9477 7.22851 23.6573C6.14125 23.5856 5.07788 23.5139 4.02646 23.4183C4.30544 24.3166 4.78791 25.1384 5.43632 25.8199C5.31684 25.8796 5.18541 25.9393 5.06593 25.9991C4.99424 26.0349 4.91061 26.0708 4.83892 26.1066C4.28779 26.3806 3.71662 26.6122 3.13036 26.7996C2.08147 25.4446 1.46898 23.803 1.37401 22.0921C1.37447 21.9254 1.40979 21.7606 1.47769 21.6083C1.54559 21.4561 1.64458 21.3197 1.7683 21.208C1.89279 21.0968 2.03846 21.012 2.19656 20.9587C2.35466 20.9053 2.52192 20.8844 2.68829 20.8973C3.73971 21.0048 4.81502 21.0885 5.91423 21.1721C6.35631 21.208 6.78643 21.2319 7.22851 21.2677C7.82591 21.3035 8.4233 21.3394 9.03265 21.3633C23.7525 22.0921 41.1846 20.8256 52.4515 19.7384C52.8577 19.7025 53.2401 19.6547 53.6343 19.6189C54.399 19.5472 55.1278 19.4636 55.8328 19.3919H55.8447C56.1912 19.356 56.5377 19.3202 56.8722 19.2843C56.9632 19.2704 57.055 19.2625 57.147 19.2604C58.067 19.1649 58.9153 19.0693 59.68 18.9737C59.6919 18.9856 59.7158 18.9737 59.7278 18.9737C60.5044 18.8901 61.1974 18.8184 61.8067 18.7467L61.7828 18.7228C63.2763 18.5555 64.1246 18.448 64.1724 18.436C64.3411 18.4122 64.513 18.4256 64.6761 18.4751C64.8391 18.5246 64.9893 18.6092 65.1163 18.7228C65.1402 18.7347 65.1522 18.7586 65.1761 18.7825C65.2897 18.8901 65.3801 19.0198 65.4418 19.1636C65.5034 19.3075 65.535 19.4624 65.5345 19.6189Z" fill="white"/>
<path d="M57.1452 19.2606C58.0652 19.153 58.9135 19.0575 59.6782 18.9738C58.9135 19.0694 58.0652 19.165 57.1452 19.2606ZM61.8049 18.7468C61.1956 18.8185 60.5026 18.8902 59.726 18.9738C59.965 18.938 60.2039 18.9141 60.419 18.8902C60.9208 18.8305 61.3748 18.7707 61.781 18.7229L61.8049 18.7468ZM55.2814 8.78223C55.1602 8.65973 55.0132 8.56584 54.8512 8.50743L41.4934 3.53708C41.3809 3.50057 41.2647 3.47653 41.1469 3.4654L36.8576 0.23945C36.7227 0.137843 36.5677 0.0661179 36.4029 0.0290378C36.2381 -0.00804242 36.0672 -0.00962886 35.9018 0.0243865L29.187 1.36256L29.653 3.70435L35.842 2.47372L38.5423 4.50487L29.3543 8.68665L29.3065 8.6986L23.4998 11.0284L10.2973 7.42017C10.0938 7.36698 9.87994 7.36765 9.67675 7.42211C9.47357 7.47656 9.28803 7.58292 9.13838 7.73075L5.43451 11.4346C5.28914 11.5784 5.18312 11.7571 5.12661 11.9536C5.07009 12.1501 5.06497 12.3578 5.11173 12.5569C5.1585 12.7559 5.25558 12.9396 5.39369 13.0904C5.53179 13.2412 5.70629 13.354 5.90048 13.418L11.528 15.2938L8.06306 18.926C8.38566 18.9379 8.70825 18.9618 9.03085 18.9738C9.75967 19.0096 10.4885 19.0455 11.2293 19.0694C29.2468 19.7145 50.538 17.6237 59.6543 16.5842C60.4668 16.4886 61.1717 16.405 61.781 16.3333C62.1036 16.2974 62.4023 16.2616 62.6652 16.2257L55.2814 8.78223ZM8.45372 11.5873L9.92424 10.1168L23.2609 13.43C23.5088 13.5021 23.7736 13.4895 24.0136 13.3941L40.0698 6.44051L45.2166 7.91103L23.4998 17.4694L14.3358 13.7931L8.45372 11.5873Z" fill="white"/>
</svg>
