<svg width="24" height="23" viewBox="0 0 24 23" fill="none" xmlns="http://www.w3.org/2000/svg">
<path d="M5.02786 20.506C4.93345 20.5053 4.84219 20.472 4.76949 20.4117C2.92292 18.9181 1.58488 16.8887 0.939678 14.603C0.294474 12.3173 0.373845 9.88781 1.16686 7.64911C1.95987 5.41041 3.42751 3.47266 5.36763 2.10277C7.30775 0.73288 9.62489 -0.00175572 11.9999 4.99396e-05C13.7561 -0.00515331 15.4897 0.396309 17.0649 1.17299C17.1622 1.22143 17.2363 1.30653 17.2709 1.40958C17.3055 1.51262 17.2978 1.62519 17.2494 1.72255C17.2258 1.77109 17.1928 1.81449 17.1524 1.85026C17.112 1.88603 17.0649 1.91346 17.0138 1.93099C16.9628 1.94851 16.9087 1.95579 16.8549 1.9524C16.801 1.949 16.7483 1.935 16.6999 1.91121C14.3108 0.738014 11.5693 0.500711 9.01417 1.24593C6.45903 1.99115 4.27496 3.66501 2.89114 5.93858C1.54887 8.1445 1.05267 10.7625 1.49466 13.3066C1.93665 15.8507 3.2868 18.148 5.29444 19.7719C5.33627 19.8061 5.37094 19.8481 5.39648 19.8957C5.42201 19.9433 5.4379 19.9954 5.44324 20.0491C5.44857 20.1029 5.44324 20.1571 5.42756 20.2088C5.41188 20.2604 5.38615 20.3085 5.35186 20.3502C5.31323 20.3991 5.26398 20.4385 5.20785 20.4655C5.15171 20.4925 5.09016 20.5064 5.02786 20.506ZM11.9999 22.9668C10.1675 22.9717 8.36099 22.5342 6.73396 21.6913C6.63715 21.6412 6.56419 21.5548 6.53112 21.451C6.49804 21.3471 6.50757 21.2344 6.55761 21.1376C6.60764 21.0408 6.69408 20.9678 6.79791 20.9348C6.90175 20.9017 7.01446 20.9112 7.11127 20.9613C9.178 22.0281 11.5368 22.3899 13.8283 21.9915C16.1197 21.5932 18.2181 20.4566 19.8036 18.755C21.3891 17.0534 22.3748 14.88 22.6104 12.5661C22.846 10.2523 22.3186 7.92487 21.1087 5.93858C20.4715 4.89614 19.6615 3.96972 18.7136 3.19898C18.6297 3.13073 18.5761 3.0321 18.5646 2.92456C18.5531 2.81703 18.5845 2.7093 18.652 2.62482C18.6859 2.58269 18.7277 2.54766 18.7751 2.52175C18.8226 2.49584 18.8746 2.47956 18.9284 2.47384C18.9821 2.46813 19.0365 2.47309 19.0883 2.48844C19.1401 2.50379 19.1884 2.52923 19.2303 2.5633C20.2501 3.39276 21.1211 4.38996 21.8059 5.51206C22.8657 7.25299 23.4431 9.24462 23.4788 11.2825C23.5144 13.3203 23.0071 15.3309 22.0088 17.1079C21.0105 18.8848 19.5573 20.3641 17.7983 21.3937C16.0394 22.4233 14.0381 22.9663 11.9999 22.9668Z" fill="white"/>
<path d="M11.5914 22.5565C11.4897 22.5562 11.3918 22.5182 11.3166 22.4498C9.77625 21.0686 8.60246 19.3269 7.90028 17.3807C7.12144 15.5102 6.70396 13.5091 6.66992 11.4832C6.67443 9.45281 7.09309 7.44466 7.90028 5.5816C8.67021 3.67182 9.83432 1.94593 11.3166 0.516617C11.3981 0.451141 11.5016 0.419282 11.6058 0.427556C11.7101 0.43583 11.8072 0.48361 11.8774 0.561128C11.9476 0.638645 11.9855 0.740046 11.9834 0.844595C11.9813 0.949145 11.9394 1.04895 11.8661 1.12359C10.4655 2.47176 9.36437 4.09969 8.6344 5.90149C7.87876 7.66533 7.48947 9.56434 7.49016 11.4832C7.51649 13.401 7.90615 15.2964 8.6385 17.0691C9.30145 18.9036 10.4107 20.5442 11.8661 21.8428C11.9273 21.8985 11.9703 21.9713 11.9894 22.0517C12.0084 22.1322 12.0027 22.2165 11.973 22.2937C11.9433 22.3709 11.891 22.4373 11.8228 22.4841C11.7547 22.531 11.674 22.5562 11.5914 22.5565Z" fill="white"/>
<path d="M12.4105 22.5563C12.3278 22.5561 12.2471 22.5309 12.179 22.484C12.1109 22.4371 12.0586 22.3707 12.0289 22.2936C11.9992 22.2164 11.9935 22.132 12.0125 22.0516C12.0316 21.9711 12.0746 21.8983 12.1357 21.8427C13.5912 20.544 14.7004 18.9034 15.3634 17.0689C16.0957 15.2963 16.4854 13.4009 16.5117 11.4831C16.5124 9.56419 16.1231 7.66518 15.3675 5.90134C14.6375 4.09955 13.5364 2.47161 12.1357 1.12345C12.0922 1.08845 12.0562 1.0449 12.03 0.995492C12.0039 0.946082 11.9881 0.891849 11.9837 0.836123C11.9793 0.780397 11.9863 0.724355 12.0043 0.671439C12.0224 0.618524 12.051 0.569851 12.0885 0.528412C12.126 0.486972 12.1716 0.453641 12.2225 0.430464C12.2734 0.407288 12.3284 0.394755 12.3843 0.393637C12.4402 0.392518 12.4958 0.402838 12.5475 0.423961C12.5993 0.445084 12.6462 0.476565 12.6853 0.516471C14.175 1.9438 15.3462 3.66984 16.1221 5.58145C16.9223 7.446 17.3339 9.45409 17.332 11.4831C17.2979 13.509 16.8804 15.5101 16.1016 17.3806C15.3948 19.3285 14.2152 21.0703 12.6689 22.4497C12.5979 22.5144 12.5065 22.5521 12.4105 22.5563Z" fill="white"/>
<path d="M23.0703 11.8935H0.923792C0.815021 11.8935 0.710706 11.8502 0.633793 11.7733C0.556881 11.6964 0.513672 11.5921 0.513672 11.4833C0.513672 11.3746 0.556881 11.2703 0.633793 11.1933C0.710706 11.1164 0.815021 11.0732 0.923792 11.0732H23.0703C23.179 11.0732 23.2833 11.1164 23.3603 11.1933C23.4372 11.2703 23.4804 11.3746 23.4804 11.4833C23.4804 11.5921 23.4372 11.6964 23.3603 11.7733C23.2833 11.8502 23.179 11.8935 23.0703 11.8935ZM21.4298 6.15178H2.56427C2.4555 6.15178 2.35118 6.10857 2.27427 6.03166C2.19736 5.95475 2.15415 5.85043 2.15415 5.74166C2.15415 5.63289 2.19736 5.52858 2.27427 5.45166C2.35118 5.37475 2.4555 5.33154 2.56427 5.33154H21.4298C21.5385 5.33154 21.6429 5.37475 21.7198 5.45166C21.7967 5.52858 21.8399 5.63289 21.8399 5.74166C21.8399 5.85043 21.7967 5.95475 21.7198 6.03166C21.6429 6.10857 21.5385 6.15178 21.4298 6.15178ZM21.4298 17.6351H2.56427C2.4555 17.6351 2.35118 17.5919 2.27427 17.515C2.19736 17.4381 2.15415 17.3338 2.15415 17.225C2.15415 17.1162 2.19736 17.0119 2.27427 16.935C2.35118 16.8581 2.4555 16.8149 2.56427 16.8149H21.4298C21.5385 16.8149 21.6429 16.8581 21.7198 16.935C21.7967 17.0119 21.8399 17.1162 21.8399 17.225C21.8399 17.3338 21.7967 17.4381 21.7198 17.515C21.6429 17.5919 21.5385 17.6351 21.4298 17.6351Z" fill="white"/>
<path d="M12.0058 22.5566C11.8971 22.5566 11.7927 22.5134 11.7158 22.4365C11.6389 22.3596 11.5957 22.2553 11.5957 22.1465V0.820276C11.5957 0.711505 11.6389 0.60719 11.7158 0.530278C11.7927 0.453365 11.8971 0.410156 12.0058 0.410156C12.1146 0.410156 12.2189 0.453365 12.2958 0.530278C12.3727 0.60719 12.4159 0.711505 12.4159 0.820276V22.1465C12.4159 22.2553 12.3727 22.3596 12.2958 22.4365C12.2189 22.5134 12.1146 22.5566 12.0058 22.5566Z" fill="white"/>
</svg>
