<svg width="16" height="16" viewBox="0 0 16 16" fill="none" xmlns="http://www.w3.org/2000/svg">
<path d="M8 11.3333C6.16 11.3333 4.66667 9.84 4.66667 8C4.66667 6.16 6.16 4.66667 8 4.66667C9.84 4.66667 11.3333 6.16 11.3333 8C11.3333 9.84 9.84 11.3333 8 11.3333ZM8.66667 2.66667V0.666667C8.66667 0.3 8.36667 0 8 0C7.63333 0 7.33333 0.3 7.33333 0.666667V2.66667C7.33333 3.03333 7.63333 3.33333 8 3.33333C8.36667 3.33333 8.66667 3.03333 8.66667 2.66667ZM8.66667 15.3333V13.3333C8.66667 12.9667 8.36667 12.6667 8 12.6667C7.63333 12.6667 7.33333 12.9667 7.33333 13.3333V15.3333C7.33333 15.7 7.63333 16 8 16C8.36667 16 8.66667 15.7 8.66667 15.3333ZM3.33333 8C3.33333 7.63333 3.03333 7.33333 2.66667 7.33333H0.666667C0.3 7.33333 0 7.63333 0 8C0 8.36667 0.3 8.66667 0.666667 8.66667H2.66667C3.03333 8.66667 3.33333 8.36667 3.33333 8ZM16 8C16 7.63333 15.7 7.33333 15.3333 7.33333H13.3333C12.9667 7.33333 12.6667 7.63333 12.6667 8C12.6667 8.36667 12.9667 8.66667 13.3333 8.66667H15.3333C15.7 8.66667 16 8.36667 16 8ZM4.47333 4.47333C4.73333 4.21333 4.73333 3.79333 4.47333 3.53333L3.14 2.2C2.88 1.94 2.46 1.94 2.2 2.2C1.94 2.46 1.94 2.88 2.2 3.14L3.53333 4.47333C3.66667 4.60667 3.83333 4.66667 4.00667 4.66667C4.18 4.66667 4.34667 4.6 4.48 4.47333H4.47333ZM13.8067 13.8067C14.0667 13.5467 14.0667 13.1267 13.8067 12.8667L12.4733 11.5333C12.2133 11.2733 11.7933 11.2733 11.5333 11.5333C11.2733 11.7933 11.2733 12.2133 11.5333 12.4733L12.8667 13.8067C13 13.94 13.1667 14 13.34 14C13.5133 14 13.68 13.9333 13.8133 13.8067H13.8067ZM3.14 13.8067L4.47333 12.4733C4.73333 12.2133 4.73333 11.7933 4.47333 11.5333C4.21333 11.2733 3.79333 11.2733 3.53333 11.5333L2.2 12.8667C1.94 13.1267 1.94 13.5467 2.2 13.8067C2.33333 13.94 2.5 14 2.67333 14C2.84667 14 3.01333 13.9333 3.14667 13.8067H3.14ZM12.4733 4.47333L13.8067 3.14C14.0667 2.88 14.0667 2.46 13.8067 2.2C13.5467 1.94 13.1267 1.94 12.8667 2.2L11.5333 3.53333C11.2733 3.79333 11.2733 4.21333 11.5333 4.47333C11.6667 4.60667 11.8333 4.66667 12.0067 4.66667C12.18 4.66667 12.3467 4.6 12.48 4.47333H12.4733Z" fill="#696969"/>
</svg>
