<svg width="19" height="10" viewBox="0 0 19 10" fill="none" xmlns="http://www.w3.org/2000/svg">
<path d="M14.5538 8.46154C14.4934 8.0345 14.3816 7.61633 14.2208 7.21615L17.6054 5.24769L16.8315 3.91846L13.4469 5.88769C13.1893 5.56362 12.8953 5.27016 12.5708 5.01308L14.5346 1.63615L13.2046 0.862308L11.2385 4.23846C10.8404 4.07893 10.4246 3.96788 10 3.90769V0H8.46154V3.90769C8.03967 3.96698 7.62645 4.07674 7.23077 4.23461L5.26923 0.862308L3.94308 1.63615L5.90308 5.00615C5.57621 5.26354 5.28015 5.55779 5.02077 5.88308L1.64615 3.91846L0.872308 5.24769L4.24308 7.21C4.08111 7.61209 3.9685 8.03234 3.90769 8.46154H0V10H18.4615V8.46154H14.5538Z" fill="#696969"/>
</svg>
