<svg width="43" height="43" viewBox="0 0 43 43" fill="none" xmlns="http://www.w3.org/2000/svg">
<circle cx="21.4761" cy="21.23" r="21.23" fill="#8A1538"/>
<path d="M19.2683 12.0586C19.2683 11.7884 19.3706 11.5292 19.5526 11.3381C19.7346 11.1469 19.9814 11.0396 20.2388 11.0396H22.1797C22.437 11.0396 22.6839 11.1469 22.8659 11.3381C23.0479 11.5292 23.1501 11.7884 23.1501 12.0586C23.1501 12.3289 23.0479 12.5881 22.8659 12.7792C22.6839 12.9703 22.437 13.0777 22.1797 13.0777H20.2388C19.9814 13.0777 19.7346 12.9703 19.5526 12.7792C19.3706 12.5881 19.2683 12.3289 19.2683 12.0586ZM34.2971 27.3442C33.2483 28.5544 32.7962 29.1913 31.7481 30.1734C30.4858 30.9928 29.1736 31.4248 27.6896 31.4203H14.8723C13.3866 31.4267 11.9687 30.9929 10.7045 30.1734C9.94177 29.5097 9.01532 28.5544 8.11793 27.3442C8.04311 27.1883 7.60991 26.4544 7.61728 26.2799C7.62465 26.1055 7.67457 25.9361 7.76224 25.7877C7.84991 25.6394 7.97241 25.5172 8.11797 25.4329C8.26354 25.3485 8.42729 25.3049 8.59354 25.3061H9.6222C9.97335 22.9255 10.9493 20.6947 12.4407 18.864C13.932 17.0334 15.8796 15.6755 18.065 14.9425C20.1155 14.2697 22.3126 14.2697 24.3631 14.9425C26.5467 15.677 28.4923 17.0357 29.9818 18.8662C31.4713 20.6967 32.4459 22.9267 32.7962 25.3061H33.8249C33.9903 25.3066 34.1529 25.3516 34.2971 25.4366C34.4414 25.5217 34.5625 25.644 34.649 25.7921C34.7356 25.9401 34.7846 26.1089 34.7915 26.2825C34.7985 26.4561 34.3716 27.1891 34.2971 27.3442ZM10.5594 26.3252L21.3681 26.2799H31.952C31.6004 24.3426 30.3294 21.1182 29.0886 19.6377C27.8477 18.1573 26.1485 16.747 24.3631 16.1348C22.6858 15.5822 20.2661 15.5822 18.5887 16.1348C16.8015 16.7455 14.5815 18.1572 13.3388 19.6377C12.0961 21.1183 10.9118 24.3867 10.5594 26.3252ZM31.952 27.3442H10.0869C10.6525 27.9892 11.1771 28.5544 11.7947 29.1913C12.7211 29.8282 14.0373 30.1761 14.8723 30.1734H27.6896C28.5245 30.1761 29.8675 29.5421 30.6326 29.1913C31.3978 28.8404 32.2306 27.9892 32.7962 27.3442H31.952Z" fill="white"/>
</svg>
