<svg width="40" height="40" viewBox="0 0 40 40" fill="none" xmlns="http://www.w3.org/2000/svg">
<circle cx="20" cy="19.9998" r="20" fill="white"/>
<circle cx="20" cy="19.9998" r="19.5" stroke="#696969" stroke-opacity="0.84"/>
<path d="M27.4796 14.1488H26.7755V9.70198C26.7755 9.31421 26.4603 8.99985 26.0714 8.99985H12.9286C12.5397 8.99985 12.2245 9.31421 12.2245 9.70198V14.1488H11.5204C9.57926 14.1488 8 15.7237 8 17.6594V27.4892C8 29.425 9.57926 30.9998 11.5204 30.9998H27.4796C29.4207 30.9998 31 29.425 31 27.4892V17.6594C31 15.7237 29.4207 14.1488 27.4796 14.1488ZM13.6327 10.4041H25.3673V14.1488H13.6327V10.4041ZM29.5918 27.4892C29.5918 28.6507 28.6443 29.5956 27.4796 29.5956H11.5204C10.3557 29.5956 9.40816 28.6507 9.40816 27.4892V17.6594C9.40816 16.498 10.3557 15.553 11.5204 15.553H27.4796C28.6443 15.553 29.5918 16.498 29.5918 17.6594V27.4892Z" fill="#818181"/>
<path d="M23.7097 21.3938L23.7102 21.3938C24.4766 21.3938 25.2116 21.6979 25.7536 22.2392C26.2956 22.7805 26.6001 23.5147 26.6001 24.2803C26.6001 25.046 26.2956 25.7802 25.7536 26.3215C25.2116 26.8628 24.4766 27.1668 23.7102 27.1668H20.7757C19.7157 27.1668 18.8639 26.2804 18.8639 25.203C18.8639 24.1257 19.7157 23.2392 20.7755 23.2391C20.7756 23.2391 20.7756 23.2391 20.7757 23.2391L23.7097 21.3938ZM23.7097 21.3938C23.0942 21.3953 22.4952 21.5924 21.9993 21.9565M23.7097 21.3938L21.9993 21.9565M21.9993 21.9565C21.5507 22.2859 21.2075 22.7366 21.0091 23.2536L21.9993 21.9565ZM20.7757 24.1276L20.776 24.1276C20.9028 24.1274 21.0284 24.152 21.1457 24.2001L21.1458 24.2001C21.2063 24.2249 21.2715 24.236 21.3367 24.2327C21.402 24.2294 21.4658 24.2118 21.5235 24.181L21.4294 24.0045L21.5235 24.181C21.5812 24.1503 21.6314 24.1072 21.6705 24.0548C21.7096 24.0025 21.7367 23.9422 21.7498 23.8782C21.8259 23.508 22.0056 23.1669 22.2681 22.8945C22.5305 22.6222 22.865 22.4297 23.2326 22.3395C23.6003 22.2493 23.986 22.2652 24.345 22.3851C24.704 22.5051 25.0215 22.7243 25.2608 23.0172C25.5 23.3102 25.6511 23.6648 25.6966 24.04C25.742 24.4152 25.68 24.7956 25.5177 25.1371C25.3554 25.4785 25.0994 25.767 24.7795 25.969C24.4595 26.1711 24.0888 26.2784 23.7102 26.2784C23.7102 26.2784 23.7102 26.2784 23.7102 26.2784H20.7757C20.2198 26.2784 19.753 25.8038 19.753 25.203C19.753 24.6022 20.2198 24.1276 20.7757 24.1276ZM12.1471 25.5715L12.2881 25.4303L12.1471 25.5715C12.2305 25.6547 12.3435 25.7015 12.4613 25.7015C12.5792 25.7015 12.6922 25.6547 12.7756 25.5715C12.859 25.4882 12.9059 25.3752 12.9059 25.2573V24.2803C12.9059 23.2154 13.2202 22.1741 13.8095 21.2866C14.3988 20.399 15.237 19.7046 16.2194 19.2901C17.2017 18.8757 18.2846 18.7596 19.3327 18.9564C20.3808 19.1532 21.3475 19.6542 22.112 20.3966C22.1539 20.4373 22.2033 20.4693 22.2575 20.4908L22.3306 20.307L22.2575 20.4908C22.3117 20.5124 22.3697 20.5231 22.428 20.5223C22.4863 20.5214 22.5439 20.5092 22.5975 20.4861C22.6511 20.4631 22.6997 20.4297 22.7404 20.3879L22.5971 20.2484L22.7404 20.3879C22.7811 20.3461 22.8132 20.2967 22.8348 20.2424L22.649 20.1684L22.8348 20.2424C22.8564 20.1882 22.8671 20.1303 22.8663 20.0719C22.8655 20.0135 22.8532 19.9559 22.8301 19.9023C22.8069 19.8487 22.7735 19.8002 22.7316 19.7596L22.7316 19.7596C21.8418 18.8954 20.7167 18.3123 19.4969 18.0832C18.2772 17.8542 17.0169 17.9893 15.8736 18.4716C14.7302 18.954 13.7546 19.7622 13.0686 20.7953C12.3827 21.8285 12.0168 23.0407 12.0168 24.2803V25.2573C12.0168 25.3752 12.0637 25.4882 12.1471 25.5715ZM18.3305 20.8169L18.3309 20.8169C19.0689 20.8149 19.788 21.05 20.3818 21.4876L20.3821 21.4878C20.4771 21.5575 20.5959 21.5867 20.7123 21.5689C20.8288 21.5512 20.9335 21.4879 21.0034 21.393C21.0732 21.2981 21.1025 21.1793 21.0847 21.0627C21.0669 20.9462 21.0035 20.8415 20.9085 20.7718L20.9083 20.7717C20.2591 20.2959 19.4905 20.0091 18.6879 19.9431C17.8853 19.8772 17.0801 20.0347 16.3617 20.3981C15.6433 20.7615 15.0398 21.3167 14.6181 22.002C14.1964 22.6873 13.9732 23.4759 13.9731 24.2803V24.2803V25.2573C13.9731 25.3752 14.02 25.4882 14.1034 25.5715L14.2353 25.4394L14.1034 25.5715C14.1868 25.6547 14.2998 25.7015 14.4177 25.7015C14.5355 25.7015 14.6485 25.6547 14.7319 25.5715L14.5906 25.43L14.7319 25.5715C14.8153 25.4882 14.8622 25.3752 14.8622 25.2573L14.8622 24.2806C14.8622 24.2805 14.8622 24.2804 14.8622 24.2804C14.8622 24.2804 14.8622 24.2804 14.8622 24.2803C14.8633 23.3622 15.229 22.4819 15.8791 21.8326C16.5293 21.1833 17.4109 20.818 18.3305 20.8169ZM19.2165 22.4821L19.2165 22.482C19.23 22.4253 19.2322 22.3664 19.2229 22.3087C19.2136 22.2511 19.193 22.1959 19.1624 22.1462L18.9922 22.2512L19.1624 22.1462C19.1317 22.0965 19.0916 22.0534 19.0443 22.0192L18.93 22.1776L19.0443 22.0192C18.9969 21.9851 18.9434 21.9606 18.8866 21.9471C18.5339 21.8635 18.1669 21.8607 17.8129 21.939C17.459 22.0172 17.1274 22.1744 16.8429 22.3988C16.5584 22.6232 16.3284 22.909 16.1702 23.2349C16.012 23.5607 15.9297 23.9181 15.9294 24.2802V24.2803V25.2573C15.9294 25.3752 15.9763 25.4882 16.0597 25.5715L16.2011 25.43L16.0597 25.5715C16.1431 25.6547 16.2562 25.7015 16.374 25.7015C16.4918 25.7015 16.6048 25.6547 16.6882 25.5715L16.5469 25.43L16.6882 25.5715C16.7716 25.4882 16.8185 25.3752 16.8185 25.2573V24.2805C16.8187 24.0526 16.8706 23.8276 16.9703 23.6225C17.0699 23.4174 17.2147 23.2374 17.3939 23.0961C17.5731 22.9547 17.782 22.8557 18.005 22.8065C18.228 22.7572 18.4592 22.7589 18.6814 22.8116L18.6815 22.8116C18.7961 22.8387 18.9168 22.8193 19.0171 22.7575C19.1175 22.6958 19.1892 22.5967 19.2165 22.4821Z" fill="#818181" stroke="#818181" stroke-width="0.4"/>
</svg>
