<svg width="43" height="43" viewBox="0 0 43 43" fill="none" xmlns="http://www.w3.org/2000/svg">
<circle cx="21.4761" cy="21.4761" r="21.23" fill="white"/>
<circle cx="21.4761" cy="21.4761" r="20.73" stroke="black" stroke-opacity="0.4"/>
<path d="M32.1528 9.66073C31.9301 9.54463 31.6625 9.56678 31.4607 9.71808C28.8974 11.6403 27.3672 14.7331 27.3672 17.9914V23.6898V30.7218C27.3672 32.1788 28.5221 33.3642 29.9416 33.3642C31.3612 33.3642 32.5161 32.1788 32.5161 30.7218V23.6898V10.2682C32.5161 10.0117 32.3757 9.77692 32.1528 9.66073ZM29.9416 32.0017C29.254 32.0017 28.6947 31.4275 28.6947 30.7218V24.3711H31.1885V30.7219H31.1885C31.1885 31.4275 30.6291 32.0017 29.9416 32.0017ZM31.1885 23.0085H28.6947V17.9915C28.6947 15.6476 29.608 13.4025 31.1885 11.7538V23.0085Z" fill="#999999"/>
<path d="M25.5395 16.3471V14.4682C25.5395 14.4137 25.5325 14.3609 25.5207 14.3101V12.3136H25.5208C25.5208 11.9373 25.2236 11.6323 24.857 11.6323C24.4904 11.6323 24.1932 11.9373 24.1932 12.3136V13.7869H22.7142V10.3803C22.7142 10.004 22.417 9.69907 22.0504 9.69907C21.6838 9.69907 21.3867 10.0041 21.3867 10.3803V13.7868H19.9076V12.3136C19.9076 11.9373 19.6105 11.6323 19.2438 11.6323C18.8773 11.6323 18.5801 11.9373 18.5801 12.3136V14.4682V15.158V16.347C18.5801 18.0834 19.7938 19.5336 21.3959 19.8526V23.0781H20.149C19.7824 23.0781 19.4853 23.3831 19.4853 23.7594V30.7232C19.4853 32.1803 20.6402 33.3656 22.0597 33.3656C23.4792 33.3656 24.6341 32.1803 24.6341 30.7232V23.7594C24.6341 23.3831 24.337 23.0781 23.9704 23.0781H22.7235V19.8527C24.3257 19.5336 25.5395 18.0834 25.5395 16.3471ZM23.3066 24.4407V30.7233H23.3067C23.3067 31.429 22.7473 32.0032 22.0598 32.0032C21.3722 32.0032 20.8129 31.429 20.8129 30.7233V24.4407H23.3066ZM22.0598 18.556C20.8731 18.556 19.9077 17.5651 19.9077 16.347V15.158V15.1495H21.9507C21.9834 15.1545 22.0165 15.158 22.0505 15.158C22.0844 15.158 22.1177 15.1545 22.1502 15.1495H24.2119V16.3471C24.2119 17.5651 23.2465 18.556 22.0598 18.556Z" fill="#999999"/>
<path d="M17.3969 16.3459V13.1587C17.3969 11.1894 15.8359 9.58713 13.9172 9.58713C11.9985 9.58713 10.4375 11.1894 10.4375 13.1587V16.3459C10.4375 18.0822 11.6512 19.5323 13.2534 19.8514V23.0769H12.0065C11.6399 23.0769 11.3427 23.3819 11.3427 23.7582V30.7221C11.3427 32.1791 12.4976 33.3645 13.9172 33.3645C15.3368 33.3645 16.4916 32.1791 16.4916 30.7221V23.7582C16.4916 23.3819 16.1945 23.0769 15.8279 23.0769H14.5809V19.8514C16.1832 19.5324 17.3969 18.0822 17.3969 16.3459ZM15.1641 24.4395V30.7221C15.1641 31.4278 14.6048 32.002 13.9173 32.002C13.2297 32.002 12.6703 31.4278 12.6703 30.7221V24.4395H15.1641ZM13.9172 18.5547C12.7305 18.5547 11.7651 17.5638 11.7651 16.3458V13.1586C11.7651 11.9406 12.7305 10.9497 13.9172 10.9497C15.1039 10.9497 16.0693 11.9406 16.0693 13.1586V16.3458C16.0693 17.5639 15.1039 18.5547 13.9172 18.5547Z" fill="#999999"/>
</svg>
