<svg width="43" height="43" viewBox="0 0 43 43" fill="none" xmlns="http://www.w3.org/2000/svg">
<circle cx="21.4761" cy="21.4761" r="21.23" fill="white"/>
<circle cx="21.4761" cy="21.4761" r="20.73" stroke="black" stroke-opacity="0.4"/>
<path d="M8.73828 20.9267L8.7669 21.8146C8.82986 23.7537 9.5167 25.6412 10.7587 27.268C11.9493 28.829 13.6091 30.1093 15.5638 30.9714C15.9988 31.1633 16.5053 30.9657 16.6942 30.5303C16.8859 30.095 16.6885 29.588 16.2535 29.399C14.565 28.6543 13.1369 27.5573 12.121 26.2254C11.291 25.1371 10.7616 23.914 10.5641 22.6452H32.3885C32.1881 23.9284 31.6501 25.1628 30.803 26.2627C29.7699 27.6031 28.3189 28.703 26.6018 29.4391C26.1668 29.6252 25.9665 30.1322 26.1525 30.5676C26.2928 30.8941 26.6076 31.0888 26.9424 31.0888C27.0569 31.0888 27.1713 31.0659 27.2801 31.0201C31.4154 29.2386 34.0626 25.7128 34.1857 21.8146L34.2143 20.9267H8.73828Z" fill="#999999"/>
<path d="M23.7539 29.6927H19.2036C18.1962 29.6927 17.3691 30.5176 17.3691 31.5286C17.3691 32.5397 18.1933 33.3646 19.2036 33.3646H23.7539C24.7613 33.3646 25.5883 32.5397 25.5883 31.5286C25.5883 30.5176 24.7613 29.6927 23.7539 29.6927ZM23.7539 31.6432H19.2036C19.1435 31.6432 19.0862 31.5859 19.0862 31.5258C19.0862 31.4656 19.1435 31.4083 19.2036 31.4083H23.7539C23.814 31.4083 23.8712 31.4656 23.8712 31.5258C23.8712 31.5859 23.814 31.6432 23.7539 31.6432Z" fill="#999999"/>
<path d="M22.5381 14.644C21.2016 13.3379 19.4559 12.6161 17.6214 12.6161C15.787 12.6161 14.0413 13.3351 12.7048 14.644C11.3855 15.9357 10.587 17.68 10.4554 19.5532C10.4211 20.0258 10.7788 20.4382 11.251 20.4698C11.7232 20.5013 12.1353 20.1461 12.1668 19.6735C12.2669 18.2185 12.8851 16.8695 13.9039 15.8727C14.917 14.8817 16.2363 14.3347 17.6214 14.3347C19.0037 14.3347 20.3259 14.8817 21.339 15.8727C22.3578 16.8695 22.9731 18.2185 23.0761 19.6735C23.1076 20.126 23.4853 20.4726 23.9318 20.4726C23.9518 20.4726 23.9718 20.4726 23.9919 20.4698C24.4641 20.4354 24.8218 20.0258 24.7875 19.5532C24.6558 17.68 23.8574 15.9357 22.5381 14.644ZM32.4314 17.829C32.1023 17.2733 31.6387 16.7807 31.0549 16.3625L32.5974 14.6927C32.9179 14.3433 32.8979 13.7991 32.5488 13.4783C32.1996 13.1575 31.6559 13.1775 31.3353 13.527L29.4752 15.5433C29.3321 15.4918 29.1861 15.4431 29.0373 15.4001L31.3954 10.8404C31.6129 10.4193 31.4498 9.9009 31.0263 9.68322C30.6056 9.46554 30.0876 9.6288 29.8701 10.0527L27.2601 15.1023C27.1027 15.0937 26.9424 15.0879 26.7822 15.0879C26.1554 15.0879 25.5373 15.1567 24.942 15.2942C24.4813 15.4001 24.1922 15.8613 24.2981 16.3253C24.404 16.7864 24.8647 17.0757 25.3284 16.9697C25.7948 16.8609 26.2842 16.8065 26.7793 16.8065C28.0271 16.8065 29.189 17.1444 30.0504 17.7602C30.8259 18.313 31.2524 19.0205 31.2524 19.7508C31.2524 20.2263 31.6358 20.6101 32.1109 20.6101C32.586 20.6101 32.9695 20.2263 32.9695 19.7508C32.9695 19.0778 32.7892 18.4304 32.4314 17.829Z" fill="#999999"/>
</svg>
