<svg width="43" height="43" viewBox="0 0 43 43" fill="none" xmlns="http://www.w3.org/2000/svg">
<circle cx="21.4761" cy="21.4761" r="21.23" fill="white"/>
<circle cx="21.4761" cy="21.4761" r="20.73" stroke="black" stroke-opacity="0.4"/>
<path d="M19.2683 12.3047C19.2683 12.0344 19.3706 11.7752 19.5526 11.5841C19.7346 11.393 19.9814 11.2856 20.2388 11.2856H22.1797C22.437 11.2856 22.6839 11.393 22.8659 11.5841C23.0479 11.7752 23.1501 12.0344 23.1501 12.3047C23.1501 12.5749 23.0479 12.8341 22.8659 13.0252C22.6839 13.2163 22.437 13.3237 22.1797 13.3237H20.2388C19.9814 13.3237 19.7346 13.2163 19.5526 13.0252C19.3706 12.8341 19.2683 12.5749 19.2683 12.3047ZM34.2971 27.5902C33.2483 28.8004 32.7962 29.4373 31.7481 30.4194C30.4858 31.2389 29.1736 31.6708 27.6896 31.6664H14.8723C13.3866 31.6727 11.9687 31.239 10.7045 30.4194C9.94177 29.7557 9.01532 28.8004 8.11793 27.5902C8.04311 27.4343 7.60991 26.7004 7.61728 26.526C7.62465 26.3516 7.67457 26.1821 7.76224 26.0338C7.84991 25.8854 7.97241 25.7632 8.11797 25.6789C8.26354 25.5946 8.42729 25.5509 8.59354 25.5521H9.6222C9.97335 23.1715 10.9493 20.9407 12.4407 19.1101C13.932 17.2795 15.8796 15.9215 18.065 15.1885C20.1155 14.5157 22.3126 14.5157 24.3631 15.1885C26.5467 15.9231 28.4923 17.2818 29.9818 19.1122C31.4713 20.9427 32.4459 23.1727 32.7962 25.5521H33.8249C33.9903 25.5527 34.1529 25.5976 34.2971 25.6826C34.4414 25.7677 34.5625 25.8901 34.649 26.0381C34.7356 26.1862 34.7846 26.355 34.7915 26.5285C34.7985 26.7021 34.3716 27.4351 34.2971 27.5902ZM10.5594 26.5712L21.3681 26.526H31.952C31.6004 24.5886 30.3294 21.3642 29.0885 19.8838C27.8477 18.4033 26.1485 16.993 24.3631 16.3808C22.6858 15.8283 20.2661 15.8283 18.5887 16.3808C16.8015 16.9915 14.5815 18.4032 13.3388 19.8838C12.0961 21.3644 10.9118 24.6327 10.5594 26.5712ZM31.952 27.5902H10.0869C10.6525 28.2352 11.1771 28.8004 11.7947 29.4373C12.7211 30.0742 14.0373 30.4221 14.8723 30.4194H27.6896C28.5245 30.4221 29.8675 29.7882 30.6326 29.4373C31.3978 29.0864 32.2306 28.2352 32.7962 27.5902H31.952Z" fill="#999999"/>
</svg>
