<svg width="43" height="43" viewBox="0 0 43 43" fill="none" xmlns="http://www.w3.org/2000/svg">
<circle cx="21.4761" cy="21.4761" r="21.23" fill="white"/>
<circle cx="21.4761" cy="21.4761" r="20.73" stroke="black" stroke-opacity="0.4"/>
<g clip-path="url(#clip0_1021_260)">
<path d="M29.6065 19.3266H12.942C12.6957 19.3302 12.4512 19.2848 12.2226 19.193C11.994 19.1013 11.786 18.965 11.6105 18.7921C11.4351 18.6192 11.2958 18.4132 11.2007 18.186C11.1056 17.9588 11.0566 17.7149 11.0566 17.4686C11.0566 17.2223 11.1056 16.9785 11.2007 16.7513C11.2958 16.5241 11.4351 16.318 11.6105 16.1451C11.786 15.9723 11.994 15.836 12.2226 15.7442C12.4512 15.6525 12.6957 15.6071 12.942 15.6107H29.6065C29.8528 15.6071 30.0973 15.6525 30.3259 15.7442C30.5545 15.836 30.7625 15.9723 30.938 16.1451C31.1134 16.318 31.2527 16.5241 31.3478 16.7513C31.4429 16.9785 31.4919 17.2223 31.4919 17.4686C31.4919 17.7149 31.4429 17.9588 31.3478 18.186C31.2527 18.4132 31.1134 18.6192 30.938 18.7921C30.7625 18.965 30.5545 19.1013 30.3259 19.193C30.0973 19.2848 29.8528 19.3302 29.6065 19.3266ZM12.942 16.8041C12.8535 16.8019 12.7654 16.8175 12.683 16.8498C12.6005 16.8822 12.5254 16.9308 12.462 16.9926C12.3986 17.0545 12.3483 17.1284 12.3139 17.21C12.2795 17.2916 12.2618 17.3793 12.2618 17.4678C12.2618 17.5564 12.2795 17.6441 12.3139 17.7257C12.3483 17.8073 12.3986 17.8812 12.462 17.943C12.5254 18.0049 12.6005 18.0534 12.683 18.0858C12.7654 18.1182 12.8535 18.1338 12.942 18.1316H29.6065C29.695 18.1338 29.7831 18.1182 29.8655 18.0858C29.948 18.0534 30.0231 18.0049 30.0865 17.943C30.1499 17.8812 30.2002 17.8073 30.2346 17.7257C30.269 17.6441 30.2867 17.5564 30.2867 17.4678C30.2867 17.3793 30.269 17.2916 30.2346 17.21C30.2002 17.1284 30.1499 17.0545 30.0865 16.9926C30.0231 16.9308 29.948 16.8822 29.8655 16.8498C29.7831 16.8175 29.695 16.8019 29.6065 16.8041H12.942Z" fill="#999999"/>
<path d="M21.2748 26.2637H21.2613C19.1865 26.2609 17.1879 25.6161 15.6338 24.4481C13.8927 23.1397 12.7853 21.2529 12.431 18.9915C12.4104 18.8367 12.4512 18.68 12.5448 18.5549C12.6383 18.4299 12.7772 18.3465 12.9315 18.3226C13.0858 18.2987 13.2434 18.3362 13.3704 18.4271C13.4974 18.518 13.5837 18.655 13.6109 18.8088C13.9162 20.7569 14.8636 22.3774 16.3515 23.4956C17.7002 24.5094 19.4445 25.0691 21.2628 25.0715H21.2748C23.0892 25.0715 24.8311 24.5166 26.1809 23.5083C27.6725 22.3937 28.6246 20.7772 28.9347 18.8319C28.9596 18.6755 29.0457 18.5354 29.1739 18.4424C29.3021 18.3494 29.462 18.3112 29.6184 18.3361C29.7748 18.361 29.9149 18.447 30.0079 18.5752C30.1009 18.7035 30.1391 18.8634 30.1142 19.0198C29.7559 21.2784 28.6413 23.1616 26.8954 24.4653C25.3406 25.6244 23.3447 26.2637 21.2748 26.2637Z" fill="#999999"/>
<path d="M27.6982 31.6665C27.3464 31.6659 27.0019 31.5658 26.7046 31.3778C26.4073 31.1897 26.1692 30.9213 26.018 30.6036L23.671 25.6557C23.636 25.5847 23.6154 25.5074 23.6105 25.4284C23.6056 25.3494 23.6165 25.2702 23.6425 25.1954C23.6685 25.1206 23.7091 25.0517 23.762 24.9928C23.8149 24.9339 23.879 24.886 23.9505 24.8521C24.022 24.8181 24.0996 24.7988 24.1787 24.7951C24.2578 24.7914 24.3368 24.8035 24.4112 24.8306C24.4856 24.8578 24.5538 24.8994 24.6119 24.9532C24.6701 25.007 24.7169 25.0718 24.7498 25.1438L27.0983 30.0933C27.1738 30.2523 27.3093 30.3748 27.4751 30.434C27.6409 30.4931 27.8234 30.484 27.9824 30.4086C28.1414 30.3331 28.264 30.1976 28.3231 30.0318C28.3823 29.8661 28.3733 29.6836 28.2981 29.5245L25.9507 24.5762C25.9171 24.5053 25.8977 24.4286 25.8937 24.3503C25.8897 24.2719 25.9011 24.1936 25.9274 24.1197C25.9537 24.0458 25.9943 23.9778 26.0468 23.9196C26.0994 23.8614 26.1629 23.8141 26.2337 23.7804C26.3046 23.7468 26.3813 23.7274 26.4597 23.7234C26.538 23.7194 26.6163 23.7309 26.6902 23.7572C26.7641 23.7834 26.8321 23.824 26.8903 23.8766C26.9485 23.9291 26.9958 23.9926 27.0295 24.0635L29.3756 29.0118C29.5094 29.295 29.5695 29.6073 29.5504 29.9199C29.5313 30.2325 29.4335 30.5352 29.2663 30.8C29.099 31.0647 28.8675 31.283 28.5934 31.4344C28.3193 31.5859 28.0114 31.6657 27.6982 31.6665Z" fill="#999999"/>
<path d="M14.8455 31.6666C14.5323 31.6661 14.2242 31.5865 13.95 31.4351C13.6758 31.2837 13.4444 31.0655 13.2771 30.8006C13.1099 30.5358 13.0124 30.2329 12.9936 29.9203C12.9748 29.6076 13.0354 29.2953 13.1697 29.0123L15.5158 24.0636C15.5837 23.9205 15.7056 23.8102 15.8547 23.7569C16.0039 23.7037 16.1681 23.7119 16.3112 23.7797C16.4543 23.8476 16.5646 23.9695 16.6178 24.1186C16.671 24.2678 16.6628 24.432 16.595 24.5751L14.2484 29.5238C14.1762 29.6824 14.1692 29.8631 14.2291 30.0269C14.2889 30.1906 14.4107 30.3242 14.5682 30.3989C14.7257 30.4736 14.9063 30.4833 15.0709 30.426C15.2356 30.3687 15.3711 30.249 15.4482 30.0926L17.7967 25.1431C17.8684 25.0063 17.9902 24.9026 18.1367 24.8537C18.2831 24.8049 18.4428 24.8146 18.5822 24.8809C18.7217 24.9473 18.83 25.065 18.8844 25.2095C18.9389 25.354 18.9352 25.514 18.8743 25.6558L16.5257 30.6053C16.3745 30.9229 16.1365 31.1911 15.8391 31.379C15.5417 31.5668 15.1972 31.6665 14.8455 31.6666Z" fill="#999999"/>
<path d="M25.4973 29.0348H17.0543C16.896 29.0348 16.7441 28.9719 16.6321 28.86C16.5202 28.748 16.4573 28.5961 16.4573 28.4378C16.4573 28.2794 16.5202 28.1275 16.6321 28.0155C16.7441 27.9036 16.896 27.8407 17.0543 27.8407H25.4973C25.6556 27.8407 25.8075 27.9036 25.9195 28.0155C26.0315 28.1275 26.0944 28.2794 26.0944 28.4378C26.0944 28.5961 26.0315 28.748 25.9195 28.86C25.8075 28.9719 25.6556 29.0348 25.4973 29.0348ZM14.9311 14.1716C14.7727 14.1716 14.6208 14.1087 14.5089 13.9967C14.3969 13.8847 14.334 13.7328 14.334 13.5745V11.8827C14.334 11.7243 14.3969 11.5725 14.5089 11.4605C14.6208 11.3485 14.7727 11.2856 14.9311 11.2856C15.0894 11.2856 15.2413 11.3485 15.3533 11.4605C15.4653 11.5725 15.5282 11.7243 15.5282 11.8827V13.5745C15.5282 13.7328 15.4653 13.8847 15.3533 13.9967C15.2413 14.1087 15.0894 14.1716 14.9311 14.1716ZM18.1024 14.1716C17.9441 14.1716 17.7922 14.1087 17.6802 13.9967C17.5683 13.8847 17.5054 13.7328 17.5054 13.5745V11.8827C17.5054 11.7243 17.5683 11.5725 17.6802 11.4605C17.7922 11.3485 17.9441 11.2856 18.1024 11.2856C18.2608 11.2856 18.4127 11.3485 18.5247 11.4605C18.6366 11.5725 18.6995 11.7243 18.6995 11.8827V13.5745C18.6995 13.7328 18.6366 13.8847 18.5247 13.9967C18.4127 14.1087 18.2608 14.1716 18.1024 14.1716ZM21.2738 14.1716C21.1155 14.1716 20.9636 14.1087 20.8516 13.9967C20.7396 13.8847 20.6767 13.7328 20.6767 13.5745V11.8827C20.6767 11.7243 20.7396 11.5725 20.8516 11.4605C20.9636 11.3485 21.1155 11.2856 21.2738 11.2856C21.4322 11.2856 21.584 11.3485 21.696 11.4605C21.808 11.5725 21.8709 11.7243 21.8709 11.8827V13.5745C21.8709 13.7328 21.808 13.8847 21.696 13.9967C21.584 14.1087 21.4322 14.1716 21.2738 14.1716ZM24.4452 14.1716C24.2868 14.1716 24.135 14.1087 24.023 13.9967C23.911 13.8847 23.8481 13.7328 23.8481 13.5745V11.8827C23.8481 11.7243 23.911 11.5725 24.023 11.4605C24.135 11.3485 24.2868 11.2856 24.4452 11.2856C24.6035 11.2856 24.7554 11.3485 24.8674 11.4605C24.9794 11.5725 25.0423 11.7243 25.0423 11.8827V13.5745C25.0423 13.7328 24.9794 13.8847 24.8674 13.9967C24.7554 14.1087 24.6035 14.1716 24.4452 14.1716ZM27.6166 14.1716C27.4582 14.1716 27.3063 14.1087 27.1943 13.9967C27.0824 13.8847 27.0195 13.7328 27.0195 13.5745V11.8827C27.0195 11.7243 27.0824 11.5725 27.1943 11.4605C27.3063 11.3485 27.4582 11.2856 27.6166 11.2856C27.7749 11.2856 27.9268 11.3485 28.0388 11.4605C28.1507 11.5725 28.2136 11.7243 28.2136 11.8827V13.5745C28.2136 13.7328 28.1507 13.8847 28.0388 13.9967C27.9268 14.1087 27.7749 14.1716 27.6166 14.1716Z" fill="#999999"/>
</g>
<defs>
<clipPath id="clip0_1021_260">
<rect width="20.3808" height="20.3808" fill="white" transform="translate(11.084 11.2856)"/>
</clipPath>
</defs>
</svg>
