<svg width="43" height="43" viewBox="0 0 43 43" fill="none" xmlns="http://www.w3.org/2000/svg">
<circle cx="21.4761" cy="21.4761" r="21.23" fill="white"/>
<circle cx="21.4761" cy="21.4761" r="20.73" stroke="black" stroke-opacity="0.4"/>
<path d="M27.317 18.7686C26.5252 18.7686 25.8809 19.4331 25.8809 20.25C25.8809 21.067 26.5252 21.7315 27.317 21.7315C28.1089 21.7315 28.7532 21.067 28.7532 20.25C28.7532 19.4331 28.1089 18.7686 27.317 18.7686ZM27.317 20.7439C27.053 20.7439 26.8383 20.5223 26.8383 20.25C26.8383 19.9777 27.0531 19.7562 27.317 19.7562C27.5811 19.7562 27.7958 19.9778 27.7958 20.25C27.7958 20.5223 27.5811 20.7439 27.317 20.7439Z" fill="#999999"/>
<path d="M20.8073 19.7594C20.5433 19.7594 20.3286 19.5379 20.3286 19.2656C20.3286 18.9933 20.5433 18.7718 20.8073 18.7718C21.0717 18.7718 21.286 18.5507 21.286 18.278C21.286 18.0053 21.0717 17.7842 20.8073 17.7842C20.0153 17.7842 19.3711 18.4487 19.3711 19.2657C19.3711 20.0826 20.0153 20.7472 20.8073 20.7472C21.0717 20.7472 21.286 20.5261 21.286 20.2534C21.286 19.9806 21.0717 19.7594 20.8073 19.7594Z" fill="#999999"/>
<path d="M17.9342 18.7672C17.6702 18.7672 17.4555 18.5457 17.4555 18.2734C17.4555 18.0011 17.6703 17.7796 17.9342 17.7796C18.1986 17.7796 18.4129 17.5585 18.4129 17.2858C18.4129 17.0131 18.1986 16.792 17.9342 16.792C17.1423 16.792 16.498 17.4566 16.498 18.2735C16.498 19.0904 17.1423 19.755 17.9342 19.755C18.1986 19.755 18.4129 19.5339 18.4129 19.2612C18.4129 18.9883 18.1986 18.7672 17.9342 18.7672Z" fill="#999999"/>
<path d="M34.513 22.7204H33.9856C33.794 21.7505 33.0498 20.9853 32.1079 20.7923C31.8821 16.4428 28.3806 12.9756 24.1088 12.9756H20.6619H13.1301C11.8102 12.9756 10.7364 14.0832 10.7364 15.4447V18.4525C10.1882 17.659 9.50146 16.9447 8.34283 16.9447C8.07846 16.9447 7.86412 17.1658 7.86412 17.4386V22.7203H7.38541C6.59346 22.7204 5.94922 23.385 5.94922 24.2019C5.94922 25.0188 6.59346 25.6834 7.38541 25.6834H7.99777L8.34693 26.764C8.74766 28.0041 10.0543 28.9756 11.3215 28.9756H30.5768C31.8441 28.9756 33.1507 28.0042 33.5515 26.764L33.9007 25.6834H34.513C35.3049 25.6834 35.9492 25.0188 35.9492 24.2019C35.9492 23.385 35.3049 22.7204 34.513 22.7204ZM24.1088 13.9633C27.9979 13.9633 31.1619 17.2271 31.1619 21.239C31.1619 21.5117 31.3762 21.7328 31.6406 21.7328C32.2647 21.7328 32.7969 22.1456 32.9945 22.7204H24.5373C23.9616 22.0327 23.6465 21.1637 23.6465 20.2513V17.2884C23.6465 17.0156 23.4322 16.7945 23.1678 16.7945C22.9033 16.7945 22.689 17.0156 22.689 17.2884V20.2513C22.689 21.1328 22.9229 21.9815 23.3581 22.7204H13.6088V21.2389C13.6088 17.2271 16.7728 13.9632 20.662 13.9632H24.1088V13.9633ZM11.6939 15.4448C11.6939 14.6278 12.3382 13.9633 13.1301 13.9633H16.8673C14.5107 15.2764 12.8611 17.7724 12.6704 20.6749C12.2801 20.5494 11.9753 20.2649 11.6939 19.8982V15.4448ZM8.82154 18.0084C9.46385 18.2248 9.87383 18.8756 10.335 19.6078C10.8894 20.488 11.5095 21.4714 12.6513 21.6884V22.7205H8.82154V18.0084ZM34.513 24.6957H33.5656C33.564 24.6957 12.1726 24.6957 12.1726 24.6957C11.9083 24.6957 11.6939 24.9168 11.6939 25.1895C11.6939 25.4622 11.9083 25.6833 12.1726 25.6833H32.8914L32.6431 26.4516C32.374 27.2843 31.4278 27.9878 30.5768 27.9878H11.3216C10.4706 27.9878 9.52438 27.2843 9.25525 26.4516L9.00699 25.6833H10.2577C10.5221 25.6833 10.7364 25.4622 10.7364 25.1895C10.7364 24.9168 10.5221 24.6957 10.2577 24.6957H8.33445C8.33275 24.6957 7.38535 24.6957 7.38535 24.6957C7.12133 24.6957 6.90664 24.4742 6.90664 24.2019C6.90664 23.9295 7.12139 23.7081 7.38535 23.7081H34.513C34.7771 23.7081 34.9917 23.9296 34.9917 24.2019C34.9918 24.4742 34.7771 24.6957 34.513 24.6957Z" fill="#999999"/>
</svg>
