<svg width="43" height="43" viewBox="0 0 43 43" fill="none" xmlns="http://www.w3.org/2000/svg">
<circle cx="21.4761" cy="21.4761" r="21.23" fill="white"/>
<circle cx="21.4761" cy="21.4761" r="20.73" stroke="black" stroke-opacity="0.4"/>
<path d="M24.7035 26.8264L28.7207 22.4075C28.9549 22.1499 29.233 21.9457 29.539 21.8063C29.845 21.667 30.1729 21.5953 30.5041 21.5954H30.6479C31.2785 21.5954 31.8833 21.8709 32.3293 22.3614C32.7752 22.8519 33.0257 23.5172 33.0257 24.2109C33.0257 24.9046 32.7752 25.5698 32.3293 26.0603C31.8833 26.5508 31.2785 26.8264 30.6479 26.8264H11.6258C10.9952 26.8264 10.3904 26.5508 9.94448 26.0603C9.49856 25.5698 9.24805 24.9046 9.24805 24.2109C9.24805 23.5172 9.49856 22.8519 9.94448 22.3614C10.3904 21.8709 10.9952 21.5954 11.6258 21.5954H16.9936C18.8852 21.5955 20.6992 22.422 22.0368 23.8931L24.7035 26.8264ZM10.4369 26.8264H31.8368V29.4419C31.8368 30.4824 31.461 31.4803 30.7922 32.2161C30.1233 32.9519 29.2161 33.3652 28.2702 33.3652H14.0036C13.0576 33.3652 12.1505 32.9519 11.4816 32.2161C10.8127 31.4803 10.4369 30.4824 10.4369 29.4419V26.8264Z" stroke="#999999" stroke-width="1.6984" stroke-linecap="round" stroke-linejoin="round"/>
<path d="M24.7064 13.5102H24.7052M21.1397 14.8179H21.1386M21.1386 9.58691C15.6424 9.58691 11.1139 11.8833 10.5076 17.4335C10.4291 18.1527 10.9712 18.7412 11.6275 18.7412H30.6496C31.3059 18.7412 31.848 18.1527 31.7695 17.4335C31.1632 11.8833 26.6348 9.58691 21.1386 9.58691Z" stroke="#999999" stroke-width="1.6984" stroke-linecap="round" stroke-linejoin="round"/>
</svg>
