<svg width="178" height="21" viewBox="0 0 178 21" fill="none" xmlns="http://www.w3.org/2000/svg">
<path d="M49.172 15.098C48.528 15.098 47.9493 14.986 47.436 14.762C46.932 14.5287 46.5353 14.2113 46.246 13.81C45.9567 13.3993 45.8073 12.928 45.798 12.396H47.156C47.2027 12.8533 47.3893 13.2407 47.716 13.558C48.052 13.866 48.5373 14.02 49.172 14.02C49.7787 14.02 50.2547 13.8707 50.6 13.572C50.9547 13.264 51.132 12.872 51.132 12.396C51.132 12.0227 51.0293 11.7193 50.824 11.486C50.6187 11.2527 50.362 11.0753 50.054 10.954C49.746 10.8327 49.3307 10.702 48.808 10.562C48.164 10.394 47.646 10.226 47.254 10.058C46.8713 9.89 46.54 9.62867 46.26 9.274C45.9893 8.91 45.854 8.42467 45.854 7.818C45.854 7.286 45.9893 6.81467 46.26 6.404C46.5307 5.99333 46.9087 5.676 47.394 5.452C47.8887 5.228 48.4533 5.116 49.088 5.116C50.0027 5.116 50.7493 5.34467 51.328 5.802C51.916 6.25933 52.2473 6.866 52.322 7.622H50.922C50.8753 7.24867 50.6793 6.922 50.334 6.642C49.9887 6.35267 49.5313 6.208 48.962 6.208C48.43 6.208 47.996 6.348 47.66 6.628C47.324 6.89867 47.156 7.28133 47.156 7.776C47.156 8.13067 47.254 8.42 47.45 8.644C47.6553 8.868 47.9027 9.04067 48.192 9.162C48.4907 9.274 48.906 9.40467 49.438 9.554C50.082 9.73133 50.6 9.90867 50.992 10.086C51.384 10.254 51.72 10.52 52 10.884C52.28 11.2387 52.42 11.724 52.42 12.34C52.42 12.816 52.294 13.264 52.042 13.684C51.79 14.104 51.4167 14.4447 50.922 14.706C50.4273 14.9673 49.844 15.098 49.172 15.098ZM53.8188 11.15C53.8188 10.3567 53.9775 9.666 54.2948 9.078C54.6121 8.48067 55.0508 8.01867 55.6108 7.692C56.1801 7.36533 56.8288 7.202 57.5568 7.202C58.4995 7.202 59.2741 7.43067 59.8808 7.888C60.4968 8.34533 60.9028 8.98 61.0988 9.792H59.7268C59.5961 9.32533 59.3395 8.95667 58.9568 8.686C58.5835 8.41533 58.1168 8.28 57.5568 8.28C56.8288 8.28 56.2408 8.532 55.7928 9.036C55.3448 9.53067 55.1208 10.2353 55.1208 11.15C55.1208 12.074 55.3448 12.788 55.7928 13.292C56.2408 13.796 56.8288 14.048 57.5568 14.048C58.1168 14.048 58.5835 13.9173 58.9568 13.656C59.3301 13.3947 59.5868 13.0213 59.7268 12.536H61.0988C60.8935 13.32 60.4828 13.95 59.8668 14.426C59.2508 14.8927 58.4808 15.126 57.5568 15.126C56.8288 15.126 56.1801 14.9627 55.6108 14.636C55.0508 14.3093 54.6121 13.8473 54.2948 13.25C53.9775 12.6527 53.8188 11.9527 53.8188 11.15ZM64.0727 8.574C64.2967 8.13533 64.614 7.79467 65.0247 7.552C65.4447 7.30933 65.9534 7.188 66.5507 7.188V8.504H66.2147C64.7867 8.504 64.0727 9.27867 64.0727 10.828V15H62.7987V7.328H64.0727V8.574ZM71.3674 15.126C70.6487 15.126 69.9954 14.9627 69.4074 14.636C68.8287 14.3093 68.3714 13.8473 68.0354 13.25C67.7087 12.6433 67.5454 11.9433 67.5454 11.15C67.5454 10.366 67.7134 9.67533 68.0494 9.078C68.3947 8.47133 68.8614 8.00933 69.4494 7.692C70.0374 7.36533 70.6954 7.202 71.4234 7.202C72.1514 7.202 72.8094 7.36533 73.3974 7.692C73.9854 8.00933 74.4474 8.46667 74.7834 9.064C75.1287 9.66133 75.3014 10.3567 75.3014 11.15C75.3014 11.9433 75.124 12.6433 74.7694 13.25C74.424 13.8473 73.9527 14.3093 73.3554 14.636C72.758 14.9627 72.0954 15.126 71.3674 15.126ZM71.3674 14.006C71.8247 14.006 72.254 13.8987 72.6554 13.684C73.0567 13.4693 73.3787 13.1473 73.6214 12.718C73.8734 12.2887 73.9994 11.766 73.9994 11.15C73.9994 10.534 73.878 10.0113 73.6354 9.582C73.3927 9.15267 73.0754 8.83533 72.6834 8.63C72.2914 8.41533 71.8667 8.308 71.4094 8.308C70.9427 8.308 70.5134 8.41533 70.1214 8.63C69.7387 8.83533 69.4307 9.15267 69.1974 9.582C68.964 10.0113 68.8474 10.534 68.8474 11.15C68.8474 11.7753 68.9594 12.3027 69.1834 12.732C69.4167 13.1613 69.7247 13.4833 70.1074 13.698C70.49 13.9033 70.91 14.006 71.3674 14.006ZM78.2504 4.64V15H76.9764V4.64H78.2504ZM81.6958 4.64V15H80.4218V4.64H81.6958ZM93.6055 5.242V6.278H90.9455V15H89.6715V6.278H86.9975V5.242H93.6055ZM98.5197 15.126C97.801 15.126 97.1477 14.9627 96.5597 14.636C95.981 14.3093 95.5237 13.8473 95.1877 13.25C94.861 12.6433 94.6977 11.9433 94.6977 11.15C94.6977 10.366 94.8657 9.67533 95.2017 9.078C95.547 8.47133 96.0137 8.00933 96.6017 7.692C97.1897 7.36533 97.8477 7.202 98.5757 7.202C99.3037 7.202 99.9617 7.36533 100.55 7.692C101.138 8.00933 101.6 8.46667 101.936 9.064C102.281 9.66133 102.454 10.3567 102.454 11.15C102.454 11.9433 102.276 12.6433 101.922 13.25C101.576 13.8473 101.105 14.3093 100.508 14.636C99.9104 14.9627 99.2477 15.126 98.5197 15.126ZM98.5197 14.006C98.977 14.006 99.4064 13.8987 99.8077 13.684C100.209 13.4693 100.531 13.1473 100.774 12.718C101.026 12.2887 101.152 11.766 101.152 11.15C101.152 10.534 101.03 10.0113 100.788 9.582C100.545 9.15267 100.228 8.83533 99.8357 8.63C99.4437 8.41533 99.019 8.308 98.5617 8.308C98.095 8.308 97.6657 8.41533 97.2737 8.63C96.891 8.83533 96.583 9.15267 96.3497 9.582C96.1164 10.0113 95.9997 10.534 95.9997 11.15C95.9997 11.7753 96.1117 12.3027 96.3357 12.732C96.569 13.1613 96.877 13.4833 97.2597 13.698C97.6424 13.9033 98.0624 14.006 98.5197 14.006ZM113.867 5.242V6.278H111.207V15H109.933V6.278H107.259V5.242H113.867ZM118.781 15.126C118.063 15.126 117.409 14.9627 116.821 14.636C116.243 14.3093 115.785 13.8473 115.449 13.25C115.123 12.6433 114.959 11.9433 114.959 11.15C114.959 10.366 115.127 9.67533 115.463 9.078C115.809 8.47133 116.275 8.00933 116.863 7.692C117.451 7.36533 118.109 7.202 118.837 7.202C119.565 7.202 120.223 7.36533 120.811 7.692C121.399 8.00933 121.861 8.46667 122.197 9.064C122.543 9.66133 122.715 10.3567 122.715 11.15C122.715 11.9433 122.538 12.6433 122.183 13.25C121.838 13.8473 121.367 14.3093 120.769 14.636C120.172 14.9627 119.509 15.126 118.781 15.126ZM118.781 14.006C119.239 14.006 119.668 13.8987 120.069 13.684C120.471 13.4693 120.793 13.1473 121.035 12.718C121.287 12.2887 121.413 11.766 121.413 11.15C121.413 10.534 121.292 10.0113 121.049 9.582C120.807 9.15267 120.489 8.83533 120.097 8.63C119.705 8.41533 119.281 8.308 118.823 8.308C118.357 8.308 117.927 8.41533 117.535 8.63C117.153 8.83533 116.845 9.15267 116.611 9.582C116.378 10.0113 116.261 10.534 116.261 11.15C116.261 11.7753 116.373 12.3027 116.597 12.732C116.831 13.1613 117.139 13.4833 117.521 13.698C117.904 13.9033 118.324 14.006 118.781 14.006ZM125.665 8.742C125.917 8.30333 126.29 7.93933 126.785 7.65C127.289 7.35133 127.872 7.202 128.535 7.202C129.216 7.202 129.832 7.36533 130.382 7.692C130.942 8.01867 131.381 8.48067 131.699 9.078C132.016 9.666 132.175 10.352 132.175 11.136C132.175 11.9107 132.016 12.6013 131.699 13.208C131.381 13.8147 130.942 14.286 130.382 14.622C129.832 14.958 129.216 15.126 128.535 15.126C127.881 15.126 127.303 14.9813 126.799 14.692C126.304 14.3933 125.926 14.0247 125.665 13.586V18.64H124.391V7.328H125.665V8.742ZM130.873 11.136C130.873 10.5573 130.756 10.0533 130.523 9.624C130.289 9.19467 129.972 8.868 129.571 8.644C129.179 8.42 128.745 8.308 128.269 8.308C127.802 8.308 127.368 8.42467 126.967 8.658C126.575 8.882 126.257 9.21333 126.015 9.652C125.781 10.0813 125.665 10.5807 125.665 11.15C125.665 11.7287 125.781 12.2373 126.015 12.676C126.257 13.1053 126.575 13.4367 126.967 13.67C127.368 13.894 127.802 14.006 128.269 14.006C128.745 14.006 129.179 13.894 129.571 13.67C129.972 13.4367 130.289 13.1053 130.523 12.676C130.756 12.2373 130.873 11.724 130.873 11.136Z" fill="#8A1538"/>
<line y1="14.6" x2="35" y2="14.6" stroke="#8A1538" stroke-width="0.8"/>
<line x1="143" y1="14.6" x2="178" y2="14.6" stroke="#8A1538" stroke-width="0.8"/>
</svg>
