<svg width="38" height="38" viewBox="0 0 38 38" fill="none" xmlns="http://www.w3.org/2000/svg">
<path d="M36.5385 14.6154H33.6154C33.3167 14.6164 33.025 14.5258 32.7794 14.356C32.5337 14.1861 32.346 13.9451 32.2415 13.6654L28.2223 2.92308H9.77769L5.75846 13.6654C5.65394 13.9451 5.46624 14.1861 5.22062 14.356C4.975 14.5258 4.68324 14.6164 4.38461 14.6154H1.46154C1.07391 14.6154 0.702166 14.4614 0.428075 14.1873C0.153983 13.9132 0 13.5415 0 13.1539C0 12.7662 0.153983 12.3945 0.428075 12.1204C0.702166 11.8463 1.07391 11.6923 1.46154 11.6923H3.37615L7.39538 0.950008C7.4999 0.670268 7.6876 0.429258 7.93322 0.259413C8.17885 0.0895671 8.4706 -0.000962324 8.76923 7.71477e-06H29.2308C29.5294 -0.000962324 29.8211 0.0895671 30.0668 0.259413C30.3124 0.429258 30.5001 0.670268 30.6046 0.950008L34.6238 11.6923H36.5385C36.9261 11.6923 37.2978 11.8463 37.5719 12.1204C37.846 12.3945 38 12.7662 38 13.1539C38 13.5415 37.846 13.9132 37.5719 14.1873C37.2978 14.4614 36.9261 14.6154 36.5385 14.6154ZM36.5385 16.0769H1.46154C1.07391 16.0769 0.702166 16.2309 0.428075 16.505C0.153983 16.7791 0 17.1508 0 17.5385V33.4985C0 34.6923 0.474268 35.8373 1.31847 36.6815C2.16267 37.5257 3.30766 38 4.50154 38H7.19077C8.38465 38 9.52963 37.5257 10.3738 36.6815C11.218 35.8373 11.6923 34.6923 11.6923 33.4985V32.1539H26.3077V33.4838C26.3058 34.0762 26.4208 34.6632 26.6461 35.211C26.8715 35.7588 27.2028 36.2568 27.621 36.6764C28.0392 37.0959 28.5361 37.4288 29.0832 37.6559C29.6303 37.8831 30.2168 38 30.8092 38H33.4985C34.6923 38 35.8373 37.5257 36.6815 36.6815C37.5257 35.8373 38 34.6923 38 33.4985V17.5385C38 17.1508 37.846 16.7791 37.5719 16.505C37.2978 16.2309 36.9261 16.0769 36.5385 16.0769ZM11.6923 26.3077C11.6923 26.6953 11.5383 27.0671 11.2642 27.3412C10.9901 27.6153 10.6184 27.7692 10.2308 27.7692H5.84615C5.45853 27.7692 5.08678 27.6153 4.81269 27.3412C4.5386 27.0671 4.38461 26.6953 4.38461 26.3077V21.9231C4.38461 21.5355 4.5386 21.1637 4.81269 20.8896C5.08678 20.6155 5.45853 20.4615 5.84615 20.4615H10.2308C10.6184 20.4615 10.9901 20.6155 11.2642 20.8896C11.5383 21.1637 11.6923 21.5355 11.6923 21.9231V26.3077ZM23.3846 27.7692H14.6154C14.2278 27.7692 13.856 27.6153 13.5819 27.3412C13.3078 27.0671 13.1538 26.6953 13.1538 26.3077C13.1538 25.9201 13.3078 25.5483 13.5819 25.2742C13.856 25.0001 14.2278 24.8462 14.6154 24.8462H23.3846C23.7722 24.8462 24.144 25.0001 24.4181 25.2742C24.6922 25.5483 24.8461 25.9201 24.8461 26.3077C24.8461 26.6953 24.6922 27.0671 24.4181 27.3412C24.144 27.6153 23.7722 27.7692 23.3846 27.7692ZM23.3846 23.3846H14.6154C14.2278 23.3846 13.856 23.2306 13.5819 22.9565C13.3078 22.6825 13.1538 22.3107 13.1538 21.9231C13.1538 21.5355 13.3078 21.1637 13.5819 20.8896C13.856 20.6155 14.2278 20.4615 14.6154 20.4615H23.3846C23.7722 20.4615 24.144 20.6155 24.4181 20.8896C24.6922 21.1637 24.8461 21.5355 24.8461 21.9231C24.8461 22.3107 24.6922 22.6825 24.4181 22.9565C24.144 23.2306 23.7722 23.3846 23.3846 23.3846ZM33.6154 26.3077C33.6154 26.6953 33.4614 27.0671 33.1873 27.3412C32.9132 27.6153 32.5415 27.7692 32.1538 27.7692H27.7692C27.3816 27.7692 27.0098 27.6153 26.7358 27.3412C26.4617 27.0671 26.3077 26.6953 26.3077 26.3077V21.9231C26.3077 21.5355 26.4617 21.1637 26.7358 20.8896C27.0098 20.6155 27.3816 20.4615 27.7692 20.4615H32.1538C32.5415 20.4615 32.9132 20.6155 33.1873 20.8896C33.4614 21.1637 33.6154 21.5355 33.6154 21.9231V26.3077Z" fill="white"/>
</svg>
