<svg width="40" height="40" viewBox="0 0 40 40" fill="none" xmlns="http://www.w3.org/2000/svg">
<circle cx="20" cy="19.9998" r="20" fill="#8A1538"/>
<path d="M27.4796 14.1488H26.7755V9.70198C26.7755 9.31421 26.4603 8.99985 26.0714 8.99985H12.9286C12.5397 8.99985 12.2245 9.31421 12.2245 9.70198V14.1488H11.5204C9.57926 14.1488 8 15.7237 8 17.6594V27.4892C8 29.425 9.57926 30.9998 11.5204 30.9998H27.4796C29.4207 30.9998 31 29.425 31 27.4892V17.6594C31 15.7237 29.4207 14.1488 27.4796 14.1488ZM13.6327 10.4041H25.3673V14.1488H13.6327V10.4041ZM29.5918 27.4892C29.5918 28.6507 28.6443 29.5956 27.4796 29.5956H11.5204C10.3557 29.5956 9.40816 28.6507 9.40816 27.4892V17.6594C9.40816 16.498 10.3557 15.553 11.5204 15.553H27.4796C28.6443 15.553 29.5918 16.498 29.5918 17.6594V27.4892Z" fill="white"/>
<path d="M20 20.002C19.0194 20.2232 17.7958 20.8004 17.6791 21.1745C17.5625 21.5485 17.8967 21.9383 18.5652 22.7178L18.7382 22.9196C18.9282 23.141 19.0231 23.2518 19.0659 23.3889C19.1086 23.5259 19.0942 23.6737 19.0655 23.9692L19.0394 24.2383C18.9383 25.2784 18.8878 25.7985 19.1932 26.0296C19.4985 26.2608 19.9576 26.05 20.8757 25.6285L21.1133 25.5194C21.3741 25.3996 21.5046 25.3397 21.6429 25.3397C21.7812 25.3397 21.9116 25.3996 22.1725 25.5194L22.4101 25.6285C23.3282 26.05 23.7872 26.2608 24.0926 26.0296C24.398 25.7985 24.1937 24.429 24.0926 23.3889M24.0926 23.3889C24.7611 22.6094 25.7232 21.5485 25.6066 21.1745C25.49 20.8004 24.9997 20.6898 24.0191 20.4685L23.7654 20.4113C23.4867 20.3484 23.3474 20.317 23.2355 20.2323C23.1237 20.1476 23.0519 20.0193 22.9084 19.7626L22.7778 19.5288C22.2728 18.6255 22.0204 18.1738 21.6429 18.1738C21.2654 18.1738 20.505 19.0986 20 20.002" fill="#D9D9D9"/>
<path d="M20 20.002C19.0194 20.2232 17.7958 20.8004 17.6791 21.1745C17.5625 21.5485 17.8967 21.9383 18.5652 22.7178L18.7382 22.9196C18.9282 23.141 19.0231 23.2518 19.0659 23.3889C19.1086 23.5259 19.0942 23.6737 19.0655 23.9692L19.0394 24.2383C18.9383 25.2784 18.8878 25.7985 19.1932 26.0296C19.4985 26.2608 19.9576 26.05 20.8757 25.6285L21.1133 25.5194C21.3741 25.3996 21.5046 25.3397 21.6429 25.3397C21.7812 25.3397 21.9116 25.3996 22.1725 25.5194L22.4101 25.6285C23.3282 26.05 23.7872 26.2608 24.0926 26.0296C24.398 25.7985 24.1937 24.429 24.0926 23.3889M24.0926 23.3889C24.7611 22.6094 25.7232 21.5485 25.6066 21.1745C25.49 20.8004 24.9997 20.6898 24.0191 20.4685L23.7654 20.4113C23.4867 20.3484 23.3474 20.317 23.2355 20.2323C23.1237 20.1476 23.0519 20.0193 22.9084 19.7626L22.7778 19.5288C22.2728 18.6255 22.0204 18.1738 21.6429 18.1738C21.2654 18.1738 20.505 19.0986 20 20.002" fill="url(#paint0_linear_813_411)"/>
<path d="M20 20.002C19.0194 20.2232 17.7958 20.8004 17.6791 21.1745C17.5625 21.5485 17.8967 21.9383 18.5652 22.7178L18.7382 22.9196C18.9282 23.141 19.0231 23.2518 19.0659 23.3889C19.1086 23.5259 19.0942 23.6737 19.0655 23.9692L19.0394 24.2383C18.9383 25.2784 18.8878 25.7985 19.1932 26.0296C19.4985 26.2608 19.9576 26.05 20.8757 25.6285L21.1133 25.5194C21.3741 25.3996 21.5046 25.3397 21.6429 25.3397C21.7812 25.3397 21.9116 25.3996 22.1725 25.5194L22.4101 25.6285C23.3282 26.05 23.7872 26.2608 24.0926 26.0296C24.398 25.7985 24.1937 24.429 24.0926 23.3889M24.0926 23.3889C24.7611 22.6094 25.7232 21.5485 25.6066 21.1745C25.49 20.8004 24.9997 20.6898 24.0191 20.4685L23.7654 20.4113C23.4867 20.3484 23.3474 20.317 23.2355 20.2323C23.1237 20.1476 23.0519 20.0193 22.9084 19.7626L22.7778 19.5288C22.2728 18.6255 22.0204 18.1738 21.6429 18.1738C21.2654 18.1738 20.505 19.0986 20 20.002" stroke="white" stroke-width="0.5" stroke-linecap="round"/>
<path d="M13.3652 24.2898C14.5412 23.6178 16.1035 23.3702 17.5819 23.6214" stroke="white" stroke-width="0.5" stroke-linecap="round"/>
<path d="M14.5137 21.2324C15.6637 21.2324 15.9969 21.2324 16.8137 21.2324" stroke="white" stroke-width="0.5" stroke-linecap="round"/>
<path d="M13.75 18.9384L13.906 18.8735C15.559 18.1857 17.3101 18.0003 18.9609 18.3382L19.1167 18.3701" stroke="white" stroke-width="0.5" stroke-linecap="round"/>
<defs>
<linearGradient id="paint0_linear_813_411" x1="17.6562" y1="22.1494" x2="25.6294" y2="22.1494" gradientUnits="userSpaceOnUse">
<stop offset="0.0311" stop-color="#A57D24"/>
<stop offset="0.1291" stop-color="#A88128"/>
<stop offset="0.2311" stop-color="#B28E34"/>
<stop offset="0.3351" stop-color="#C3A348"/>
<stop offset="0.4396" stop-color="#DABF64"/>
<stop offset="0.5251" stop-color="#F1DD80"/>
<stop offset="0.7377" stop-color="#F1DD80"/>
<stop offset="0.8769" stop-color="#A57D24"/>
<stop offset="1" stop-color="#BA973B"/>
</linearGradient>
</defs>
</svg>
