<svg width="40" height="40" viewBox="0 0 40 40" fill="none" xmlns="http://www.w3.org/2000/svg">
<circle cx="20" cy="19.9998" r="20" fill="white"/>
<circle cx="20" cy="19.9998" r="19.5" stroke="#696969" stroke-opacity="0.84"/>
<path d="M27.4796 14.1488H26.7755V9.70198C26.7755 9.31421 26.4603 8.99985 26.0714 8.99985H12.9286C12.5397 8.99985 12.2245 9.31421 12.2245 9.70198V14.1488H11.5204C9.57926 14.1488 8 15.7237 8 17.6594V27.4892C8 29.425 9.57926 30.9998 11.5204 30.9998H27.4796C29.4207 30.9998 31 29.425 31 27.4892V17.6594C31 15.7237 29.4207 14.1488 27.4796 14.1488ZM13.6327 10.4041H25.3673V14.1488H13.6327V10.4041ZM29.5918 27.4892C29.5918 28.6507 28.6443 29.5956 27.4796 29.5956H11.5204C10.3557 29.5956 9.40816 28.6507 9.40816 27.4892V17.6594C9.40816 16.498 10.3557 15.553 11.5204 15.553H27.4796C28.6443 15.553 29.5918 16.498 29.5918 17.6594V27.4892Z" fill="#818181"/>
<path d="M19.2667 20.4684C18.2861 20.6896 17.7958 20.8003 17.6791 21.1743C17.5625 21.5484 17.8967 21.9382 18.5652 22.7177L18.7382 22.9194C18.9282 23.1409 19.0231 23.2517 19.0659 23.3887C19.1086 23.5257 19.0942 23.6735 19.0655 23.9691L19.0394 24.2381C18.9383 25.2783 18.8878 25.7983 19.1932 26.0295C19.4985 26.2607 19.9576 26.0499 20.8757 25.6283L21.1133 25.5193C21.3741 25.3995 21.5046 25.3396 21.6429 25.3396C21.7812 25.3396 21.9116 25.3995 22.1725 25.5193L22.4101 25.6283C23.3282 26.0499 23.7872 26.2607 24.0926 26.0295C24.398 25.7983 24.3475 25.2783 24.2464 24.2381M24.7205 22.7177C25.389 21.9382 25.7232 21.5484 25.6066 21.1743C25.49 20.8003 24.9997 20.6896 24.0191 20.4684L23.7654 20.4111C23.4867 20.3483 23.3474 20.3168 23.2355 20.2321C23.1237 20.1475 23.0519 20.0191 22.9084 19.7624L22.7778 19.5287C22.2728 18.6253 22.0204 18.1737 21.6429 18.1737C21.2654 18.1737 21.0129 18.6253 20.5079 19.5287" stroke="#818181" stroke-linecap="round"/>
<path d="M13.3652 24.2897C14.5412 23.6177 16.1035 23.37 17.5819 23.6213" stroke="#818181" stroke-linecap="round"/>
<path d="M14.5137 21.2323C15.6637 21.2323 15.9969 21.2323 16.8137 21.2323" stroke="#818181" stroke-linecap="round"/>
<path d="M13.75 18.9382L13.906 18.8733C15.559 18.1855 17.3101 18.0001 18.9609 18.3381L19.1167 18.37" stroke="#818181" stroke-linecap="round"/>
</svg>
